<?xml version="1.0" encoding="UTF-8"?>
<svg xmlns="http://www.w3.org/2000/svg" xmlns:xlink="http://www.w3.org/1999/xlink" width="2133" height="1067" viewBox="0 0 2133 1067">
<defs>
<g>
<g id="glyph-0-0-28eb449b">
<path d="M 15.796875 0 C 15.796875 0 12.28125 0 12.28125 0 C 12.28125 0 8.921875 -7.46875 8.921875 -7.46875 C 8.921875 -7.46875 2.421875 0 2.421875 0 C 2.421875 0 -1.234375 0 -1.234375 0 C -1.234375 0 7.6875 -9.96875 7.6875 -9.96875 C 7.6875 -9.96875 3.28125 -19.5625 3.28125 -19.5625 C 3.28125 -19.5625 6.75 -19.5625 6.75 -19.5625 C 6.75 -19.5625 10.046875 -12.390625 10.046875 -12.390625 C 10.046875 -12.390625 16.28125 -19.5625 16.28125 -19.5625 C 16.28125 -19.5625 19.890625 -19.5625 19.890625 -19.5625 C 19.890625 -19.5625 11.203125 -9.96875 11.203125 -9.96875 C 11.203125 -9.96875 15.796875 0 15.796875 0 Z M 15.796875 0 "/>
</g>
<g id="glyph-1-0-28eb449b">
<path d="M 19.265625 -8.0625 C 19.265625 -8.0625 2.53125 -8.0625 2.53125 -8.0625 C 2.53125 -8.0625 2.53125 -10.59375 2.53125 -10.59375 C 2.53125 -10.59375 19.265625 -10.59375 19.265625 -10.59375 C 19.265625 -10.59375 19.265625 -8.0625 19.265625 -8.0625 Z M 19.265625 -8.0625 "/>
</g>
<g id="glyph-1-1-28eb449b">
<path d="M 12.953125 0 C 12.953125 0 9.671875 0 9.671875 0 C 9.671875 0 9.671875 -18.84375 9.671875 -18.84375 C 9.671875 -18.84375 3.8125 -18.84375 3.8125 -18.84375 C 3.8125 -18.84375 3.8125 -21.203125 3.8125 -21.203125 C 8.890625 -21.84375 9.625 -22.390625 10.78125 -26.46875 C 10.78125 -26.46875 12.953125 -26.46875 12.953125 -26.46875 C 12.953125 -26.46875 12.953125 0 12.953125 0 Z M 12.953125 0 "/>
</g>
<g id="glyph-1-2-28eb449b">
<path d="M 7.125 0 C 7.125 0 3.25 0 3.25 0 C 3.25 0 3.25 -3.875 3.25 -3.875 C 3.25 -3.875 7.125 -3.875 7.125 -3.875 C 7.125 -3.875 7.125 0 7.125 0 Z M 7.125 0 "/>
</g>
<g id="glyph-1-3-28eb449b">
<path d="M 18.921875 -12.734375 C 18.921875 -4.03125 15.859375 0.5625 10.265625 0.5625 C 4.59375 0.5625 1.609375 -4.03125 1.609375 -12.953125 C 1.609375 -21.84375 4.546875 -26.46875 10.265625 -26.46875 C 16.015625 -26.46875 18.921875 -21.90625 18.921875 -12.734375 Z M 15.5625 -13.03125 C 15.5625 -20.125 13.8125 -23.546875 10.265625 -23.546875 C 6.71875 -23.546875 4.96875 -20.15625 4.96875 -12.921875 C 4.96875 -5.671875 6.71875 -2.171875 10.1875 -2.171875 C 13.84375 -2.171875 15.5625 -5.53125 15.5625 -13.03125 Z M 15.5625 -13.03125 "/>
</g>
<g id="glyph-1-4-28eb449b">
<path d="M 19.15625 -8.765625 C 19.15625 -3.171875 15.421875 0.5625 10.078125 0.5625 C 5.375 0.5625 2.390625 -1.53125 1.3125 -6.796875 C 1.3125 -6.796875 4.59375 -6.796875 4.59375 -6.796875 C 5.375 -3.8125 7.125 -2.359375 10 -2.359375 C 13.59375 -2.359375 15.796875 -4.515625 15.796875 -8.328125 C 15.796875 -12.25 13.546875 -14.515625 10 -14.515625 C 7.953125 -14.515625 6.6875 -13.890625 5.15625 -12.0625 C 5.15625 -12.0625 2.125 -12.0625 2.125 -12.0625 C 2.125 -12.0625 4.109375 -25.90625 4.109375 -25.90625 C 4.109375 -25.90625 17.765625 -25.90625 17.765625 -25.90625 C 17.765625 -25.90625 17.765625 -22.65625 17.765625 -22.65625 C 17.765625 -22.65625 6.75 -22.65625 6.75 -22.65625 C 6.75 -22.65625 5.71875 -15.828125 5.71875 -15.828125 C 7.234375 -16.953125 8.734375 -17.4375 10.59375 -17.4375 C 15.671875 -17.4375 19.15625 -14 19.15625 -8.765625 Z M 19.15625 -8.765625 "/>
</g>
<g id="glyph-1-5-28eb449b">
<path d="M 19.40625 -23.140625 C 13.84375 -16.53125 10.109375 -8.546875 8.65625 0 C 8.65625 0 5.15625 0 5.15625 0 C 7.015625 -8.28125 10.75 -16.015625 16.015625 -22.65625 C 16.015625 -22.65625 1.71875 -22.65625 1.71875 -22.65625 C 1.71875 -22.65625 1.71875 -25.90625 1.71875 -25.90625 C 1.71875 -25.90625 19.40625 -25.90625 19.40625 -25.90625 C 19.40625 -25.90625 19.40625 -23.140625 19.40625 -23.140625 Z M 19.40625 -23.140625 "/>
</g>
<g id="glyph-1-6-28eb449b">
<path d="M 19.078125 -18.703125 C 19.078125 -15.453125 17.171875 -12.6875 13.46875 -10.71875 C 13.46875 -10.71875 9.75 -8.703125 9.75 -8.703125 C 6.5 -6.796875 5.296875 -5.40625 4.96875 -3.25 C 4.96875 -3.25 18.890625 -3.25 18.890625 -3.25 C 18.890625 -3.25 18.890625 0 18.890625 0 C 18.890625 0 1.265625 0 1.265625 0 C 1.5625 -5.828125 3.171875 -8.328125 8.703125 -11.453125 C 8.703125 -11.453125 12.125 -13.40625 12.125 -13.40625 C 14.484375 -14.75 15.71875 -16.53125 15.71875 -18.625 C 15.71875 -21.46875 13.46875 -23.59375 10.484375 -23.59375 C 7.234375 -23.59375 5.40625 -21.71875 5.15625 -17.28125 C 5.15625 -17.28125 1.859375 -17.28125 1.859375 -17.28125 C 2.046875 -23.703125 5.1875 -26.46875 10.59375 -26.46875 C 15.609375 -26.46875 19.078125 -23.1875 19.078125 -18.703125 Z M 19.078125 -18.703125 "/>
</g>
<g id="glyph-1-7-28eb449b">
<path d="M 25.265625 -9.921875 C 24.453125 -2.84375 20.71875 0.671875 14.078125 0.671875 C 6.078125 0.671875 1.796875 -5.34375 1.796875 -13.28125 C 1.796875 -21.234375 5.96875 -27.890625 14.21875 -27.890625 C 20.1875 -27.890625 23.625 -24.75 24.71875 -18.78125 C 24.71875 -18.78125 21.171875 -18.78125 21.171875 -18.78125 C 20.3125 -22.921875 18.0625 -24.828125 13.8125 -24.828125 C 8.546875 -24.828125 5.265625 -20.3125 5.265625 -13.328125 C 5.265625 -6.53125 8.703125 -2.390625 14.109375 -2.390625 C 18.703125 -2.390625 20.859375 -4.78125 21.6875 -9.921875 C 21.6875 -9.921875 25.265625 -9.921875 25.265625 -9.921875 Z M 25.265625 -9.921875 "/>
</g>
<g id="glyph-1-8-28eb449b">
<path d="M 19.03125 -9.625 C 19.03125 -3.203125 15.671875 0.5625 10.1875 0.5625 C 4.625 0.5625 1.34375 -3.203125 1.34375 -9.78125 C 1.34375 -16.34375 4.671875 -20.125 10.15625 -20.125 C 15.796875 -20.125 19.03125 -16.390625 19.03125 -9.625 Z M 15.796875 -9.671875 C 15.796875 -14.515625 13.703125 -17.25 10.1875 -17.25 C 6.71875 -17.25 4.59375 -14.484375 4.59375 -9.78125 C 4.59375 -5.046875 6.71875 -2.3125 10.1875 -2.3125 C 13.625 -2.3125 15.796875 -5.078125 15.796875 -9.671875 Z M 15.796875 -9.671875 "/>
</g>
<g id="glyph-1-9-28eb449b">
<path d="M 5.640625 0 C 5.640625 0 2.53125 0 2.53125 0 C 2.53125 0 2.53125 -27.21875 2.53125 -27.21875 C 2.53125 -27.21875 5.640625 -27.21875 5.640625 -27.21875 C 5.640625 -27.21875 5.640625 0 5.640625 0 Z M 5.640625 0 "/>
</g>
<g id="glyph-1-10-28eb449b">
<path d="M 17.8125 -6.71875 C 17.4375 -2.234375 14.484375 0.5625 9.8125 0.5625 C 4.515625 0.5625 1.15625 -3.28125 1.15625 -9.59375 C 1.15625 -16.09375 4.59375 -20.125 9.859375 -20.125 C 14.21875 -20.125 17.203125 -17.765625 17.578125 -12.984375 C 17.578125 -12.984375 14.453125 -12.984375 14.453125 -12.984375 C 14.078125 -15.71875 12.4375 -17.25 9.8125 -17.25 C 6.421875 -17.25 4.40625 -14.484375 4.40625 -9.59375 C 4.40625 -4.96875 6.453125 -2.3125 9.890625 -2.3125 C 12.546875 -2.3125 14.140625 -3.578125 14.671875 -6.71875 C 14.671875 -6.71875 17.8125 -6.71875 17.8125 -6.71875 Z M 17.8125 -6.71875 "/>
</g>
<g id="glyph-1-11-28eb449b">
<path d="M 9.484375 0 C 8.4375 0.1875 7.6875 0.265625 6.9375 0.265625 C 4.515625 0.265625 3.171875 -0.859375 3.171875 -2.84375 C 3.171875 -2.84375 3.171875 -17.015625 3.171875 -17.015625 C 3.171875 -17.015625 0.515625 -17.015625 0.515625 -17.015625 C 0.515625 -17.015625 0.515625 -19.5625 0.515625 -19.5625 C 0.515625 -19.5625 3.171875 -19.5625 3.171875 -19.5625 C 3.171875 -19.5625 3.171875 -24.9375 3.171875 -24.9375 C 3.171875 -24.9375 6.265625 -24.9375 6.265625 -24.9375 C 6.265625 -24.9375 6.265625 -19.5625 6.265625 -19.5625 C 6.265625 -19.5625 9.484375 -19.5625 9.484375 -19.5625 C 9.484375 -19.5625 9.484375 -17.015625 9.484375 -17.015625 C 9.484375 -17.015625 6.265625 -17.015625 6.265625 -17.015625 C 6.265625 -17.015625 6.265625 -4.21875 6.265625 -4.21875 C 6.265625 -2.84375 6.640625 -2.46875 7.984375 -2.46875 C 8.578125 -2.46875 9.078125 -2.5 9.484375 -2.609375 C 9.484375 -2.609375 9.484375 0 9.484375 0 Z M 9.484375 0 "/>
</g>
<g id="glyph-1-12-28eb449b">
<path d="M 5.71875 0 C 5.71875 0 2.609375 0 2.609375 0 C 2.609375 0 2.609375 -19.5625 2.609375 -19.5625 C 2.609375 -19.5625 5.71875 -19.5625 5.71875 -19.5625 C 5.71875 -19.5625 5.71875 0 5.71875 0 Z M 6.125 -22.515625 C 6.125 -22.515625 2.234375 -22.515625 2.234375 -22.515625 C 2.234375 -22.515625 2.234375 -26.390625 2.234375 -26.390625 C 2.234375 -26.390625 6.125 -26.390625 6.125 -26.390625 C 6.125 -26.390625 6.125 -22.515625 6.125 -22.515625 Z M 6.125 -22.515625 "/>
</g>
<g id="glyph-1-13-28eb449b">
<path d="M 18.171875 0 C 18.171875 0 15.078125 0 15.078125 0 C 15.078125 0 15.078125 -13.546875 15.078125 -13.546875 C 15.078125 -15.90625 13.515625 -17.390625 11.046875 -17.390625 C 7.875 -17.390625 5.71875 -14.78125 5.71875 -10.78125 C 5.71875 -10.78125 5.71875 0 5.71875 0 C 5.71875 0 2.609375 0 2.609375 0 C 2.609375 0 2.609375 -19.5625 2.609375 -19.5625 C 2.609375 -19.5625 5.484375 -19.5625 5.484375 -19.5625 C 5.484375 -19.5625 5.484375 -16.28125 5.484375 -16.28125 C 7.203125 -19 9.078125 -20.125 11.984375 -20.125 C 15.75 -20.125 18.171875 -18.03125 18.171875 -14.78125 C 18.171875 -14.78125 18.171875 0 18.171875 0 Z M 18.171875 0 "/>
</g>
<g id="glyph-1-14-28eb449b">
<path d="M 26.46875 0 C 26.46875 0 24.265625 0 24.265625 0 C 24.265625 0 23.40625 -3.578125 23.40625 -3.578125 C 20.75 -0.640625 17.8125 0.671875 14.109375 0.671875 C 6.75 0.671875 1.640625 -4.96875 1.640625 -13.328125 C 1.640625 -21.46875 6.390625 -27.890625 14.703125 -27.890625 C 20.9375 -27.890625 25.125 -24.484375 26.09375 -18.96875 C 26.09375 -18.96875 22.546875 -18.96875 22.546875 -18.96875 C 21.796875 -22.46875 18.8125 -24.828125 14.671875 -24.828125 C 8.921875 -24.828125 5.109375 -20.1875 5.109375 -13.515625 C 5.109375 -6.875 8.703125 -2.390625 14.859375 -2.390625 C 19.828125 -2.390625 23.40625 -5.71875 23.40625 -10.5625 C 23.40625 -10.5625 23.40625 -11.3125 23.40625 -11.3125 C 23.40625 -11.3125 15.125 -11.3125 15.125 -11.3125 C 15.125 -11.3125 15.125 -14.375 15.125 -14.375 C 15.125 -14.375 26.46875 -14.375 26.46875 -14.375 C 26.46875 -14.375 26.46875 0 26.46875 0 Z M 26.46875 0 "/>
</g>
<g id="glyph-1-15-28eb449b">
<path d="M 19.96875 -0.078125 C 18.96875 0.1875 18.484375 0.265625 17.84375 0.265625 C 16.3125 0.265625 14.96875 -0.828125 14.625 -2.3125 C 12.921875 -0.484375 10.484375 0.5625 7.984375 0.5625 C 4.03125 0.5625 1.5625 -1.53125 1.5625 -5.078125 C 1.5625 -7.46875 2.71875 -9.21875 5 -10.15625 C 6.203125 -10.640625 6.875 -10.78125 11.265625 -11.34375 C 13.734375 -11.640625 14.515625 -12.203125 14.515625 -13.515625 C 14.515625 -13.515625 14.515625 -14.328125 14.515625 -14.328125 C 14.515625 -16.203125 12.953125 -17.25 10.15625 -17.25 C 7.234375 -17.25 5.828125 -16.15625 5.5625 -13.78125 C 5.5625 -13.78125 2.421875 -13.78125 2.421875 -13.78125 C 2.609375 -18.296875 5.53125 -20.125 10.265625 -20.125 C 15.078125 -20.125 17.625 -18.25 17.625 -14.78125 C 17.625 -14.78125 17.625 -3.875 17.625 -3.875 C 17.625 -2.90625 18.21875 -2.359375 19.296875 -2.359375 C 19.484375 -2.359375 19.640625 -2.359375 19.96875 -2.421875 C 19.96875 -2.421875 19.96875 -0.078125 19.96875 -0.078125 Z M 14.515625 -6.75 C 14.515625 -6.75 14.515625 -9.671875 14.515625 -9.671875 C 13.46875 -9.1875 12.796875 -9.03125 9.515625 -8.578125 C 6.203125 -8.09375 4.8125 -7.203125 4.8125 -5.15625 C 4.8125 -3.03125 6.234375 -2.171875 8.65625 -2.171875 C 11.6875 -2.171875 14.515625 -3.953125 14.515625 -6.75 Z M 14.515625 -6.75 "/>
</g>
<g id="glyph-1-16-28eb449b">
<path d="M 19.15625 -8.890625 C 19.15625 -8.890625 4.734375 -8.890625 4.734375 -8.890625 C 4.8125 -4.40625 7.234375 -2.3125 10.484375 -2.3125 C 12.984375 -2.3125 14.75 -3.359375 15.609375 -5.9375 C 15.609375 -5.9375 18.734375 -5.9375 18.734375 -5.9375 C 17.953125 -1.984375 14.859375 0.5625 10.375 0.5625 C 4.890625 0.5625 1.5 -3.25 1.5 -9.671875 C 1.5 -16.09375 5 -20.125 10.453125 -20.125 C 14.109375 -20.125 17.09375 -18.171875 18.359375 -14.96875 C 18.921875 -13.515625 19.15625 -11.71875 19.15625 -8.890625 Z M 15.828125 -11.640625 C 15.828125 -14.703125 13.46875 -17.25 10.421875 -17.25 C 7.28125 -17.25 5.078125 -14.890625 4.8125 -11.421875 C 4.8125 -11.421875 15.796875 -11.421875 15.796875 -11.421875 C 15.828125 -11.5 15.828125 -11.640625 15.828125 -11.640625 Z M 15.828125 -11.640625 "/>
</g>
<g id="glyph-1-17-28eb449b">
<path d="M 11.984375 -16.828125 C 7.171875 -16.765625 5.71875 -14.5625 5.71875 -10.15625 C 5.71875 -10.15625 5.71875 0 5.71875 0 C 5.71875 0 2.609375 0 2.609375 0 C 2.609375 0 2.609375 -19.5625 2.609375 -19.5625 C 2.609375 -19.5625 5.453125 -19.5625 5.453125 -19.5625 C 5.453125 -19.5625 5.453125 -16.015625 5.453125 -16.015625 C 7.234375 -18.921875 8.765625 -20.125 10.78125 -20.125 C 11.203125 -20.125 11.453125 -20.078125 11.984375 -20.015625 C 11.984375 -20.015625 11.984375 -16.828125 11.984375 -16.828125 Z M 11.984375 -16.828125 "/>
</g>
<g id="glyph-1-18-28eb449b">
<path d="M 18.734375 0 C 18.734375 0 14.890625 0 14.890625 0 C 14.890625 0 8.28125 -10.59375 8.28125 -10.59375 C 8.28125 -10.59375 5.265625 -7.609375 5.265625 -7.609375 C 5.265625 -7.609375 5.265625 0 5.265625 0 C 5.265625 0 2.171875 0 2.171875 0 C 2.171875 0 2.171875 -27.21875 2.171875 -27.21875 C 2.171875 -27.21875 5.265625 -27.21875 5.265625 -27.21875 C 5.265625 -27.21875 5.265625 -11.265625 5.265625 -11.265625 C 5.265625 -11.265625 13.546875 -19.5625 13.546875 -19.5625 C 13.546875 -19.5625 17.546875 -19.5625 17.546875 -19.5625 C 17.546875 -19.5625 10.75 -12.796875 10.75 -12.796875 C 10.75 -12.796875 18.734375 0 18.734375 0 Z M 18.734375 0 "/>
</g>
<g id="glyph-1-19-28eb449b">
<path d="M 24.046875 0 C 24.046875 0 20.5625 0 20.5625 0 C 20.5625 0 20.5625 -12.390625 20.5625 -12.390625 C 20.5625 -12.390625 6.5625 -12.390625 6.5625 -12.390625 C 6.5625 -12.390625 6.5625 0 6.5625 0 C 6.5625 0 3.09375 0 3.09375 0 C 3.09375 0 3.09375 -27.21875 3.09375 -27.21875 C 3.09375 -27.21875 6.5625 -27.21875 6.5625 -27.21875 C 6.5625 -27.21875 6.5625 -15.453125 6.5625 -15.453125 C 6.5625 -15.453125 20.5625 -15.453125 20.5625 -15.453125 C 20.5625 -15.453125 20.5625 -27.21875 20.5625 -27.21875 C 20.5625 -27.21875 24.046875 -27.21875 24.046875 -27.21875 C 24.046875 -27.21875 24.046875 0 24.046875 0 Z M 24.046875 0 "/>
</g>
<g id="glyph-1-20-28eb449b">
<path d="M 10.59375 -8.953125 C 10.59375 -8.953125 1.71875 -8.953125 1.71875 -8.953125 C 1.71875 -8.953125 1.71875 -11.640625 1.71875 -11.640625 C 1.71875 -11.640625 10.59375 -11.640625 10.59375 -11.640625 C 10.59375 -11.640625 10.59375 -8.953125 10.59375 -8.953125 Z M 10.59375 -8.953125 "/>
</g>
<g id="glyph-1-21-28eb449b">
<path d="M 17.140625 -5.484375 C 17.140625 -1.71875 14 0.5625 9.078125 0.5625 C 3.953125 0.5625 1.421875 -1.453125 1.265625 -5.96875 C 1.265625 -5.96875 4.546875 -5.96875 4.546875 -5.96875 C 4.96875 -2.984375 6.53125 -2.3125 9.328125 -2.3125 C 12.0625 -2.3125 13.890625 -3.390625 13.890625 -5.21875 C 13.890625 -6.640625 13.03125 -7.28125 10.859375 -7.796875 C 10.859375 -7.796875 7.953125 -8.515625 7.953125 -8.515625 C 3.328125 -9.625 1.75 -11.09375 1.75 -14.140625 C 1.75 -17.765625 4.703125 -20.125 9.25 -20.125 C 13.78125 -20.125 16.3125 -17.953125 16.34375 -14.109375 C 16.34375 -14.109375 13.0625 -14.109375 13.0625 -14.109375 C 12.984375 -16.15625 11.640625 -17.25 9.140625 -17.25 C 6.609375 -17.25 5 -16.09375 5 -14.296875 C 5 -12.921875 6.078125 -12.09375 8.625 -11.5 C 8.625 -11.5 11.609375 -10.78125 11.609375 -10.78125 C 15.484375 -9.859375 17.140625 -8.40625 17.140625 -5.484375 Z M 17.140625 -5.484375 "/>
</g>
<g id="glyph-2-0-28eb449b">
<path d="M -12.84375 -20.078125 C -6.3125 -18.671875 0.453125 -14.9375 0.453125 -9.21875 C 0.453125 -3.203125 -6.53125 -2.046875 -13.40625 -3.515625 C -20.34375 -5 -27.65625 -8.578125 -27.65625 -14.59375 C -27.65625 -20.90625 -20.078125 -21.609375 -12.84375 -20.078125 Z M -14.5625 -17.3125 C -19.59375 -18.328125 -24.828125 -18.890625 -24.828125 -14.5625 C -24.828125 -10.1875 -19.703125 -8.171875 -14.5625 -6.9375 C -14.5625 -6.9375 -14.5625 -17.3125 -14.5625 -17.3125 Z M -11.71875 -16.6875 C -11.71875 -16.6875 -11.71875 -6.3125 -11.71875 -6.3125 C -7.09375 -5.40625 -2.390625 -5.265625 -2.390625 -9.21875 C -2.390625 -13.28125 -6.984375 -15.453125 -11.71875 -16.6875 Z M -11.71875 -16.6875 "/>
</g>
<g id="glyph-2-1-28eb449b">
</g>
<g id="glyph-2-2-28eb449b">
<path d="M -3.84375 -6.078125 C -3.84375 -6.078125 0 -5.265625 0 -5.265625 C 0 -5.265625 0 -1.375 0 -1.375 C 0 -1.375 -3.84375 -2.203125 -3.84375 -2.203125 C -3.84375 -2.203125 -3.84375 -6.078125 -3.84375 -6.078125 Z M -3.84375 -6.078125 "/>
</g>
<g id="glyph-3-0-28eb449b">
<path d="M 7.953125 -7.3125 C 7.953125 -7.3125 7.953125 -5.265625 7.953125 -5.265625 C 4.734375 -3.4375 0.109375 -2.359375 -4.328125 -2.359375 C -11.90625 -2.359375 -20.421875 -6.234375 -27.21875 -12.734375 C -27.21875 -12.734375 -27.21875 -14.78125 -27.21875 -14.78125 C -19.515625 -8.515625 -11.234375 -5.265625 -2.953125 -5.265625 C 0.859375 -5.265625 4.375 -5.9375 7.953125 -7.3125 Z M 7.953125 -7.3125 "/>
</g>
<g id="glyph-3-1-28eb449b">
</g>
<g id="glyph-3-2-28eb449b">
<path d="M -19.1875 -20.453125 C -13.84375 -20.453125 -7.421875 -18.734375 -4 -16.34375 C -0.859375 -14.1875 0.5625 -11.71875 0.5625 -8.515625 C 0.5625 -4.625 -1.90625 -1.859375 -6.640625 -1.859375 C -12.0625 -1.859375 -18.484375 -3.625 -21.90625 -5.96875 C -24.96875 -8.0625 -26.46875 -10.640625 -26.46875 -13.734375 C -26.46875 -17.953125 -23.734375 -20.453125 -19.1875 -20.453125 Z M -18.8125 -17.171875 C -21.84375 -17.171875 -23.59375 -15.71875 -23.59375 -13.28125 C -23.59375 -10.9375 -22.09375 -9.109375 -19 -7.6875 C -15.90625 -6.265625 -10.59375 -5.15625 -7.0625 -5.15625 C -4.109375 -5.15625 -2.3125 -6.5625 -2.3125 -8.921875 C -2.3125 -11.34375 -3.734375 -13.109375 -6.9375 -14.59375 C -9.921875 -16.015625 -15.296875 -17.171875 -18.8125 -17.171875 Z M -18.8125 -17.171875 "/>
</g>
<g id="glyph-4-0-28eb449b">
<path d="M 0 -15.796875 C 0 -15.796875 0 -12.28125 0 -12.28125 C 0 -12.28125 -7.46875 -8.921875 -7.46875 -8.921875 C -7.46875 -8.921875 0 -2.421875 0 -2.421875 C 0 -2.421875 0 1.234375 0 1.234375 C 0 1.234375 -9.96875 -7.6875 -9.96875 -7.6875 C -9.96875 -7.6875 -19.5625 -3.28125 -19.5625 -3.28125 C -19.5625 -3.28125 -19.5625 -6.75 -19.5625 -6.75 C -19.5625 -6.75 -12.390625 -10.046875 -12.390625 -10.046875 C -12.390625 -10.046875 -19.5625 -16.28125 -19.5625 -16.28125 C -19.5625 -16.28125 -19.5625 -19.890625 -19.5625 -19.890625 C -19.5625 -19.890625 -9.96875 -11.203125 -9.96875 -11.203125 C -9.96875 -11.203125 0 -15.796875 0 -15.796875 Z M 0 -15.796875 "/>
</g>
<g id="glyph-4-1-28eb449b">
<path d="M -2.71875 -8.21875 C -2.71875 -8.21875 0 -7.609375 0 -7.609375 C 0.15625 -7.09375 0.265625 -5.9375 0.265625 -5.1875 C 0.265625 -3.140625 -0.859375 -1.859375 -2.6875 -1.859375 C -3.0625 -1.859375 -3.46875 -1.90625 -3.84375 -1.984375 C -3.84375 -1.984375 -17.0625 -4.8125 -17.0625 -4.8125 C -17.0625 -4.8125 -17.0625 -2.171875 -17.0625 -2.171875 C -17.0625 -2.171875 -19.5625 -2.6875 -19.5625 -2.6875 C -19.5625 -2.6875 -19.5625 -5.34375 -19.5625 -5.34375 C -19.5625 -5.34375 -24.9375 -6.5 -24.9375 -6.5 C -24.9375 -6.5 -24.9375 -9.625 -24.9375 -9.625 C -24.9375 -9.625 -19.5625 -8.46875 -19.5625 -8.46875 C -19.5625 -8.46875 -19.5625 -11.796875 -19.5625 -11.796875 C -19.5625 -11.796875 -17.0625 -11.265625 -17.0625 -11.265625 C -17.0625 -11.265625 -17.0625 -7.953125 -17.0625 -7.953125 C -17.0625 -7.953125 -3.953125 -5.15625 -3.953125 -5.15625 C -3.734375 -5.109375 -3.546875 -5.078125 -3.4375 -5.078125 C -2.84375 -5.078125 -2.421875 -5.59375 -2.421875 -6.421875 C -2.421875 -6.875 -2.46875 -7.0625 -2.71875 -8.21875 Z M -2.71875 -8.21875 "/>
</g>
<g id="glyph-4-2-28eb449b">
</g>
<g id="glyph-4-3-28eb449b">
<path d="M -15.1875 -10.265625 C -7.421875 -10.265625 1.1875 -6.390625 7.953125 0.078125 C 7.953125 0.078125 7.953125 2.125 7.953125 2.125 C 0.375 -4.0625 -8.03125 -7.390625 -16.09375 -7.390625 C -20.078125 -7.390625 -23.59375 -6.75 -27.21875 -5.34375 C -27.21875 -5.34375 -27.21875 -7.390625 -27.21875 -7.390625 C -24.109375 -9.140625 -19.40625 -10.265625 -15.1875 -10.265625 Z M -15.1875 -10.265625 "/>
</g>
<g id="glyph-5-0-28eb449b">
<path d="M -3.84375 -6.125 C -3.84375 -6.125 0.59375 -5.15625 0.59375 -5.15625 C 3.65625 -4.484375 5.53125 -2.796875 5.484375 -0.40625 C 5.484375 -0.40625 5.484375 -0.1875 5.484375 -0.1875 C 5.484375 -0.1875 4.0625 -0.484375 4.0625 -0.484375 C 4.0625 -2.28125 3.0625 -3.0625 0 -3.578125 C 0 -3.578125 0 -1.375 0 -1.375 C 0 -1.375 -3.84375 -2.203125 -3.84375 -2.203125 C -3.84375 -2.203125 -3.84375 -6.125 -3.84375 -6.125 Z M -3.84375 -6.125 "/>
</g>
<g id="glyph-6-0-28eb449b">
<path d="M -11.453125 -19.265625 C -11.453125 -19.265625 -11.453125 -2.53125 -11.453125 -2.53125 C -11.453125 -2.53125 -14 -2.53125 -14 -2.53125 C -14 -2.53125 -14 -19.265625 -14 -19.265625 C -14 -19.265625 -11.453125 -19.265625 -11.453125 -19.265625 Z M -4.671875 -19.265625 C -4.671875 -19.265625 -4.671875 -2.53125 -4.671875 -2.53125 C -4.671875 -2.53125 -7.203125 -2.53125 -7.203125 -2.53125 C -7.203125 -2.53125 -7.203125 -19.265625 -7.203125 -19.265625 C -7.203125 -19.265625 -4.671875 -19.265625 -4.671875 -19.265625 Z M -4.671875 -19.265625 "/>
</g>
<g id="glyph-6-1-28eb449b">
<path d="M -19.1875 -20.453125 C -13.84375 -20.453125 -7.421875 -18.734375 -4 -16.34375 C -0.859375 -14.1875 0.5625 -11.71875 0.5625 -8.515625 C 0.5625 -4.625 -1.90625 -1.859375 -6.640625 -1.859375 C -12.0625 -1.859375 -18.484375 -3.625 -21.90625 -5.96875 C -24.96875 -8.0625 -26.46875 -10.640625 -26.46875 -13.734375 C -26.46875 -17.953125 -23.734375 -20.453125 -19.1875 -20.453125 Z M -18.8125 -17.171875 C -21.84375 -17.171875 -23.59375 -15.71875 -23.59375 -13.28125 C -23.59375 -10.9375 -22.09375 -9.109375 -19 -7.6875 C -15.90625 -6.265625 -10.59375 -5.15625 -7.0625 -5.15625 C -4.109375 -5.15625 -2.3125 -6.5625 -2.3125 -8.921875 C -2.3125 -11.34375 -3.734375 -13.109375 -6.9375 -14.59375 C -9.921875 -16.015625 -15.296875 -17.171875 -18.8125 -17.171875 Z M -18.8125 -17.171875 "/>
</g>
<g id="glyph-7-0-28eb449b">
<path d="M -26.46875 -16.71875 C -26.46875 -16.71875 0 -11.09375 0 -11.09375 C 0 -11.09375 0 -7.796875 0 -7.796875 C 0 -7.796875 -18.84375 -11.828125 -18.84375 -11.828125 C -18.84375 -11.828125 -18.84375 -5.890625 -18.84375 -5.890625 C -18.84375 -5.890625 -21.203125 -6.390625 -21.203125 -6.390625 C -21.953125 -11.765625 -22.4375 -12.546875 -26.46875 -14.5625 C -26.46875 -14.5625 -26.46875 -16.71875 -26.46875 -16.71875 Z M -26.46875 -16.71875 "/>
</g>
<g id="glyph-8-0-28eb449b">
<path d="M -13.625 -24.890625 C -5.15625 -24.890625 0 -20.6875 0 -13.8125 C 0 -13.8125 0 -3.328125 0 -3.328125 C 0 -3.328125 -27.21875 -3.328125 -27.21875 -3.328125 C -27.21875 -3.328125 -27.21875 -13.8125 -27.21875 -13.8125 C -27.21875 -20.71875 -22.0625 -24.890625 -13.625 -24.890625 Z M -13.59375 -21.421875 C -20.53125 -21.421875 -24.15625 -18.59375 -24.15625 -13.21875 C -24.15625 -13.21875 -24.15625 -6.796875 -24.15625 -6.796875 C -24.15625 -6.796875 -3.0625 -6.796875 -3.0625 -6.796875 C -3.0625 -6.796875 -3.0625 -13.21875 -3.0625 -13.21875 C -3.0625 -18.59375 -6.71875 -21.421875 -13.59375 -21.421875 Z M -13.59375 -21.421875 "/>
</g>
<g id="glyph-8-1-28eb449b">
<path d="M -17.015625 -9.625 C -17.015625 -9.625 -17.015625 -6.390625 -17.015625 -6.390625 C -17.015625 -6.390625 0 -6.390625 0 -6.390625 C 0 -6.390625 0 -3.28125 0 -3.28125 C 0 -3.28125 -17.015625 -3.28125 -17.015625 -3.28125 C -17.015625 -3.28125 -17.015625 -0.671875 -17.015625 -0.671875 C -17.015625 -0.671875 -19.5625 -0.671875 -19.5625 -0.671875 C -19.5625 -0.671875 -19.5625 -3.28125 -19.5625 -3.28125 C -19.5625 -3.28125 -22.875 -3.28125 -22.875 -3.28125 C -25.6875 -3.28125 -27.328125 -5 -27.328125 -7.875 C -27.328125 -8.515625 -27.28125 -8.921875 -27.140625 -9.625 C -27.140625 -9.625 -24.5625 -9.625 -24.5625 -9.625 C -24.59375 -8.921875 -24.59375 -8.8125 -24.59375 -8.546875 C -24.59375 -7.125 -23.921875 -6.390625 -22.625 -6.390625 C -22.625 -6.390625 -19.5625 -6.390625 -19.5625 -6.390625 C -19.5625 -6.390625 -19.5625 -9.625 -19.5625 -9.625 C -19.5625 -9.625 -17.015625 -9.625 -17.015625 -9.625 Z M -17.015625 -9.625 "/>
</g>
<g id="glyph-8-2-28eb449b">
<path d="M 0 -18.171875 C 0 -18.171875 0 -15.078125 0 -15.078125 C 0 -15.078125 -13.546875 -15.078125 -13.546875 -15.078125 C -15.90625 -15.078125 -17.390625 -13.515625 -17.390625 -11.046875 C -17.390625 -7.875 -14.78125 -5.71875 -10.78125 -5.71875 C -10.78125 -5.71875 0 -5.71875 0 -5.71875 C 0 -5.71875 0 -2.609375 0 -2.609375 C 0 -2.609375 -19.5625 -2.609375 -19.5625 -2.609375 C -19.5625 -2.609375 -19.5625 -5.484375 -19.5625 -5.484375 C -19.5625 -5.484375 -16.28125 -5.484375 -16.28125 -5.484375 C -19 -7.203125 -20.125 -9.078125 -20.125 -11.984375 C -20.125 -15.75 -18.03125 -18.171875 -14.78125 -18.171875 C -14.78125 -18.171875 0 -18.171875 0 -18.171875 Z M 0 -18.171875 "/>
</g>
<g id="glyph-8-3-28eb449b">
<path d="M -6.71875 -17.8125 C -2.234375 -17.4375 0.5625 -14.484375 0.5625 -9.8125 C 0.5625 -4.515625 -3.28125 -1.15625 -9.59375 -1.15625 C -16.09375 -1.15625 -20.125 -4.59375 -20.125 -9.859375 C -20.125 -14.21875 -17.765625 -17.203125 -12.984375 -17.578125 C -12.984375 -17.578125 -12.984375 -14.453125 -12.984375 -14.453125 C -15.71875 -14.078125 -17.25 -12.4375 -17.25 -9.8125 C -17.25 -6.421875 -14.484375 -4.40625 -9.59375 -4.40625 C -4.96875 -4.40625 -2.3125 -6.453125 -2.3125 -9.890625 C -2.3125 -12.546875 -3.578125 -14.140625 -6.71875 -14.671875 C -6.71875 -14.671875 -6.71875 -17.8125 -6.71875 -17.8125 Z M -6.71875 -17.8125 "/>
</g>
<g id="glyph-8-4-28eb449b">
<path d="M -8.890625 -19.15625 C -8.890625 -19.15625 -8.890625 -4.734375 -8.890625 -4.734375 C -4.40625 -4.8125 -2.3125 -7.234375 -2.3125 -10.484375 C -2.3125 -12.984375 -3.359375 -14.75 -5.9375 -15.609375 C -5.9375 -15.609375 -5.9375 -18.734375 -5.9375 -18.734375 C -1.984375 -17.953125 0.5625 -14.859375 0.5625 -10.375 C 0.5625 -4.890625 -3.25 -1.5 -9.671875 -1.5 C -16.09375 -1.5 -20.125 -5 -20.125 -10.453125 C -20.125 -14.109375 -18.171875 -17.09375 -14.96875 -18.359375 C -13.515625 -18.921875 -11.71875 -19.15625 -8.890625 -19.15625 Z M -11.640625 -15.828125 C -14.703125 -15.828125 -17.25 -13.46875 -17.25 -10.421875 C -17.25 -7.28125 -14.890625 -5.078125 -11.421875 -4.8125 C -11.421875 -4.8125 -11.421875 -15.796875 -11.421875 -15.796875 C -11.5 -15.828125 -11.640625 -15.828125 -11.640625 -15.828125 Z M -11.640625 -15.828125 "/>
</g>
<g id="glyph-8-5-28eb449b">
<path d="M 0 -18.140625 C 0 -18.140625 0 -15.046875 0 -15.046875 C 0 -15.046875 -13.546875 -15.046875 -13.546875 -15.046875 C -16.125 -15.046875 -17.390625 -13.21875 -17.390625 -11.015625 C -17.390625 -7.796875 -14.78125 -5.71875 -10.78125 -5.71875 C -10.78125 -5.71875 0 -5.71875 0 -5.71875 C 0 -5.71875 0 -2.609375 0 -2.609375 C 0 -2.609375 -27.21875 -2.609375 -27.21875 -2.609375 C -27.21875 -2.609375 -27.21875 -5.71875 -27.21875 -5.71875 C -27.21875 -5.71875 -16.875 -5.71875 -16.875 -5.71875 C -19.265625 -7.546875 -20.125 -9.21875 -20.125 -11.984375 C -20.125 -15.796875 -18.0625 -18.140625 -14.78125 -18.140625 C -14.78125 -18.140625 0 -18.140625 0 -18.140625 Z M 0 -18.140625 "/>
</g>
<g id="glyph-8-6-28eb449b">
<path d="M 0 -5.71875 C 0 -5.71875 0 -2.609375 0 -2.609375 C 0 -2.609375 -19.5625 -2.609375 -19.5625 -2.609375 C -19.5625 -2.609375 -19.5625 -5.71875 -19.5625 -5.71875 C -19.5625 -5.71875 0 -5.71875 0 -5.71875 Z M -22.515625 -6.125 C -22.515625 -6.125 -22.515625 -2.234375 -22.515625 -2.234375 C -22.515625 -2.234375 -26.390625 -2.234375 -26.390625 -2.234375 C -26.390625 -2.234375 -26.390625 -6.125 -26.390625 -6.125 C -26.390625 -6.125 -22.515625 -6.125 -22.515625 -6.125 Z M -22.515625 -6.125 "/>
</g>
<g id="glyph-8-7-28eb449b">
<path d="M -5.484375 -17.140625 C -1.71875 -17.140625 0.5625 -14 0.5625 -9.078125 C 0.5625 -3.953125 -1.453125 -1.421875 -5.96875 -1.265625 C -5.96875 -1.265625 -5.96875 -4.546875 -5.96875 -4.546875 C -2.984375 -4.96875 -2.3125 -6.53125 -2.3125 -9.328125 C -2.3125 -12.0625 -3.390625 -13.890625 -5.21875 -13.890625 C -6.640625 -13.890625 -7.28125 -13.03125 -7.796875 -10.859375 C -7.796875 -10.859375 -8.515625 -7.953125 -8.515625 -7.953125 C -9.625 -3.328125 -11.09375 -1.75 -14.140625 -1.75 C -17.765625 -1.75 -20.125 -4.703125 -20.125 -9.25 C -20.125 -13.78125 -17.953125 -16.3125 -14.109375 -16.34375 C -14.109375 -16.34375 -14.109375 -13.0625 -14.109375 -13.0625 C -16.15625 -12.984375 -17.25 -11.640625 -17.25 -9.140625 C -17.25 -6.609375 -16.09375 -5 -14.296875 -5 C -12.921875 -5 -12.09375 -6.078125 -11.5 -8.625 C -11.5 -8.625 -10.78125 -11.609375 -10.78125 -11.609375 C -9.859375 -15.484375 -8.40625 -17.140625 -5.484375 -17.140625 Z M -5.484375 -17.140625 "/>
</g>
<g id="glyph-8-8-28eb449b">
<path d="M -9.625 -19.03125 C -3.203125 -19.03125 0.5625 -15.671875 0.5625 -10.1875 C 0.5625 -4.625 -3.203125 -1.34375 -9.78125 -1.34375 C -16.34375 -1.34375 -20.125 -4.671875 -20.125 -10.15625 C -20.125 -15.796875 -16.390625 -19.03125 -9.625 -19.03125 Z M -9.671875 -15.796875 C -14.515625 -15.796875 -17.25 -13.703125 -17.25 -10.1875 C -17.25 -6.71875 -14.484375 -4.59375 -9.78125 -4.59375 C -5.046875 -4.59375 -2.3125 -6.71875 -2.3125 -10.1875 C -2.3125 -13.625 -5.078125 -15.796875 -9.671875 -15.796875 Z M -9.671875 -15.796875 "/>
</g>
<g id="glyph-8-9-28eb449b">
<path d="M 0 -5.640625 C 0 -5.640625 0 -2.53125 0 -2.53125 C 0 -2.53125 -27.21875 -2.53125 -27.21875 -2.53125 C -27.21875 -2.53125 -27.21875 -5.640625 -27.21875 -5.640625 C -27.21875 -5.640625 0 -5.640625 0 -5.640625 Z M 0 -5.640625 "/>
</g>
<g id="glyph-8-10-28eb449b">
<path d="M 0 -18 C 0 -18 0 -15.1875 0 -15.1875 C 0 -15.1875 -3.03125 -15.1875 -3.03125 -15.1875 C -0.453125 -13.359375 0.5625 -11.53125 0.5625 -8.65625 C 0.5625 -4.859375 -1.53125 -2.421875 -4.78125 -2.421875 C -4.78125 -2.421875 -19.5625 -2.421875 -19.5625 -2.421875 C -19.5625 -2.421875 -19.5625 -5.53125 -19.5625 -5.53125 C -19.5625 -5.53125 -6.015625 -5.53125 -6.015625 -5.53125 C -3.65625 -5.53125 -2.171875 -7.09375 -2.171875 -9.5625 C -2.171875 -12.796875 -4.78125 -14.890625 -8.765625 -14.890625 C -8.765625 -14.890625 -19.5625 -14.890625 -19.5625 -14.890625 C -19.5625 -14.890625 -19.5625 -18 -19.5625 -18 C -19.5625 -18 0 -18 0 -18 Z M 0 -18 "/>
</g>
<g id="glyph-8-11-28eb449b">
<path d="M 0 -9.484375 C 0.1875 -8.4375 0.265625 -7.6875 0.265625 -6.9375 C 0.265625 -4.515625 -0.859375 -3.171875 -2.84375 -3.171875 C -2.84375 -3.171875 -17.015625 -3.171875 -17.015625 -3.171875 C -17.015625 -3.171875 -17.015625 -0.515625 -17.015625 -0.515625 C -17.015625 -0.515625 -19.5625 -0.515625 -19.5625 -0.515625 C -19.5625 -0.515625 -19.5625 -3.171875 -19.5625 -3.171875 C -19.5625 -3.171875 -24.9375 -3.171875 -24.9375 -3.171875 C -24.9375 -3.171875 -24.9375 -6.265625 -24.9375 -6.265625 C -24.9375 -6.265625 -19.5625 -6.265625 -19.5625 -6.265625 C -19.5625 -6.265625 -19.5625 -9.484375 -19.5625 -9.484375 C -19.5625 -9.484375 -17.015625 -9.484375 -17.015625 -9.484375 C -17.015625 -9.484375 -17.015625 -6.265625 -17.015625 -6.265625 C -17.015625 -6.265625 -4.21875 -6.265625 -4.21875 -6.265625 C -2.84375 -6.265625 -2.46875 -6.640625 -2.46875 -7.984375 C -2.46875 -8.578125 -2.5 -9.078125 -2.609375 -9.484375 C -2.609375 -9.484375 0 -9.484375 0 -9.484375 Z M 0 -9.484375 "/>
</g>
<g id="glyph-9-0-28eb449b">
<path d="M 0 -5.71875 C 0 -5.71875 0 -2.609375 0 -2.609375 C 0 -2.609375 -19.5625 -2.609375 -19.5625 -2.609375 C -19.5625 -2.609375 -19.5625 -5.71875 -19.5625 -5.71875 C -19.5625 -5.71875 0 -5.71875 0 -5.71875 Z M -22.515625 -6.125 C -22.515625 -6.125 -22.515625 -2.234375 -22.515625 -2.234375 C -22.515625 -2.234375 -26.390625 -2.234375 -26.390625 -2.234375 C -26.390625 -2.234375 -26.390625 -6.125 -26.390625 -6.125 C -26.390625 -6.125 -22.515625 -6.125 -22.515625 -6.125 Z M -22.515625 -6.125 "/>
</g>
<g id="glyph-9-1-28eb449b">
<path d="M -17.015625 -9.625 C -17.015625 -9.625 -17.015625 -6.390625 -17.015625 -6.390625 C -17.015625 -6.390625 0 -6.390625 0 -6.390625 C 0 -6.390625 0 -3.28125 0 -3.28125 C 0 -3.28125 -17.015625 -3.28125 -17.015625 -3.28125 C -17.015625 -3.28125 -17.015625 -0.671875 -17.015625 -0.671875 C -17.015625 -0.671875 -19.5625 -0.671875 -19.5625 -0.671875 C -19.5625 -0.671875 -19.5625 -3.28125 -19.5625 -3.28125 C -19.5625 -3.28125 -22.875 -3.28125 -22.875 -3.28125 C -25.6875 -3.28125 -27.328125 -5 -27.328125 -7.875 C -27.328125 -8.515625 -27.28125 -8.921875 -27.140625 -9.625 C -27.140625 -9.625 -24.5625 -9.625 -24.5625 -9.625 C -24.59375 -8.921875 -24.59375 -8.8125 -24.59375 -8.546875 C -24.59375 -7.125 -23.921875 -6.390625 -22.625 -6.390625 C -22.625 -6.390625 -19.5625 -6.390625 -19.5625 -6.390625 C -19.5625 -6.390625 -19.5625 -9.625 -19.5625 -9.625 C -19.5625 -9.625 -17.015625 -9.625 -17.015625 -9.625 Z M -17.015625 -9.625 "/>
</g>
<g id="glyph-9-2-28eb449b">
<path d="M -8.953125 -10.59375 C -8.953125 -10.59375 -8.953125 -1.71875 -8.953125 -1.71875 C -8.953125 -1.71875 -11.640625 -1.71875 -11.640625 -1.71875 C -11.640625 -1.71875 -11.640625 -10.59375 -11.640625 -10.59375 C -11.640625 -10.59375 -8.953125 -10.59375 -8.953125 -10.59375 Z M -8.953125 -10.59375 "/>
</g>
<g id="glyph-10-0-28eb449b">
<path d="M -8.890625 -19.15625 C -8.890625 -19.15625 -8.890625 -4.734375 -8.890625 -4.734375 C -4.40625 -4.8125 -2.3125 -7.234375 -2.3125 -10.484375 C -2.3125 -12.984375 -3.359375 -14.75 -5.9375 -15.609375 C -5.9375 -15.609375 -5.9375 -18.734375 -5.9375 -18.734375 C -1.984375 -17.953125 0.5625 -14.859375 0.5625 -10.375 C 0.5625 -4.890625 -3.25 -1.5 -9.671875 -1.5 C -16.09375 -1.5 -20.125 -5 -20.125 -10.453125 C -20.125 -14.109375 -18.171875 -17.09375 -14.96875 -18.359375 C -13.515625 -18.921875 -11.71875 -19.15625 -8.890625 -19.15625 Z M -11.640625 -15.828125 C -14.703125 -15.828125 -17.25 -13.46875 -17.25 -10.421875 C -17.25 -7.28125 -14.890625 -5.078125 -11.421875 -4.8125 C -11.421875 -4.8125 -11.421875 -15.796875 -11.421875 -15.796875 C -11.5 -15.828125 -11.640625 -15.828125 -11.640625 -15.828125 Z M -11.640625 -15.828125 "/>
</g>
<g id="glyph-11-0-28eb449b">
<path d="M -16.828125 -11.984375 C -16.765625 -7.171875 -14.5625 -5.71875 -10.15625 -5.71875 C -10.15625 -5.71875 0 -5.71875 0 -5.71875 C 0 -5.71875 0 -2.609375 0 -2.609375 C 0 -2.609375 -19.5625 -2.609375 -19.5625 -2.609375 C -19.5625 -2.609375 -19.5625 -5.453125 -19.5625 -5.453125 C -19.5625 -5.453125 -16.015625 -5.453125 -16.015625 -5.453125 C -18.921875 -7.234375 -20.125 -8.765625 -20.125 -10.78125 C -20.125 -11.203125 -20.078125 -11.453125 -20.015625 -11.984375 C -20.015625 -11.984375 -16.828125 -11.984375 -16.828125 -11.984375 Z M -16.828125 -11.984375 "/>
</g>
<g id="glyph-11-1-28eb449b">
<path d="M 0 -5.71875 C 0 -5.71875 0 -2.609375 0 -2.609375 C 0 -2.609375 -19.5625 -2.609375 -19.5625 -2.609375 C -19.5625 -2.609375 -19.5625 -5.71875 -19.5625 -5.71875 C -19.5625 -5.71875 0 -5.71875 0 -5.71875 Z M -22.515625 -6.125 C -22.515625 -6.125 -22.515625 -2.234375 -22.515625 -2.234375 C -22.515625 -2.234375 -26.390625 -2.234375 -26.390625 -2.234375 C -26.390625 -2.234375 -26.390625 -6.125 -26.390625 -6.125 C -26.390625 -6.125 -22.515625 -6.125 -22.515625 -6.125 Z M -22.515625 -6.125 "/>
</g>
<g id="glyph-11-2-28eb449b">
<path d="M -5.484375 -17.140625 C -1.71875 -17.140625 0.5625 -14 0.5625 -9.078125 C 0.5625 -3.953125 -1.453125 -1.421875 -5.96875 -1.265625 C -5.96875 -1.265625 -5.96875 -4.546875 -5.96875 -4.546875 C -2.984375 -4.96875 -2.3125 -6.53125 -2.3125 -9.328125 C -2.3125 -12.0625 -3.390625 -13.890625 -5.21875 -13.890625 C -6.640625 -13.890625 -7.28125 -13.03125 -7.796875 -10.859375 C -7.796875 -10.859375 -8.515625 -7.953125 -8.515625 -7.953125 C -9.625 -3.328125 -11.09375 -1.75 -14.140625 -1.75 C -17.765625 -1.75 -20.125 -4.703125 -20.125 -9.25 C -20.125 -13.78125 -17.953125 -16.3125 -14.109375 -16.34375 C -14.109375 -16.34375 -14.109375 -13.0625 -14.109375 -13.0625 C -16.15625 -12.984375 -17.25 -11.640625 -17.25 -9.140625 C -17.25 -6.609375 -16.09375 -5 -14.296875 -5 C -12.921875 -5 -12.09375 -6.078125 -11.5 -8.625 C -11.5 -8.625 -10.78125 -11.609375 -10.78125 -11.609375 C -9.859375 -15.484375 -8.40625 -17.140625 -5.484375 -17.140625 Z M -5.484375 -17.140625 "/>
</g>
<g id="glyph-12-0-28eb449b">
<path d="M -8.890625 -19.15625 C -8.890625 -19.15625 -8.890625 -4.734375 -8.890625 -4.734375 C -4.40625 -4.8125 -2.3125 -7.234375 -2.3125 -10.484375 C -2.3125 -12.984375 -3.359375 -14.75 -5.9375 -15.609375 C -5.9375 -15.609375 -5.9375 -18.734375 -5.9375 -18.734375 C -1.984375 -17.953125 0.5625 -14.859375 0.5625 -10.375 C 0.5625 -4.890625 -3.25 -1.5 -9.671875 -1.5 C -16.09375 -1.5 -20.125 -5 -20.125 -10.453125 C -20.125 -14.109375 -18.171875 -17.09375 -14.96875 -18.359375 C -13.515625 -18.921875 -11.71875 -19.15625 -8.890625 -19.15625 Z M -11.640625 -15.828125 C -14.703125 -15.828125 -17.25 -13.46875 -17.25 -10.421875 C -17.25 -7.28125 -14.890625 -5.078125 -11.421875 -4.8125 C -11.421875 -4.8125 -11.421875 -15.796875 -11.421875 -15.796875 C -11.5 -15.828125 -11.640625 -15.828125 -11.640625 -15.828125 Z M -11.640625 -15.828125 "/>
</g>
<g id="glyph-13-0-28eb449b">
</g>
<g id="glyph-13-1-28eb449b">
<path d="M -16.828125 -11.984375 C -16.765625 -7.171875 -14.5625 -5.71875 -10.15625 -5.71875 C -10.15625 -5.71875 0 -5.71875 0 -5.71875 C 0 -5.71875 0 -2.609375 0 -2.609375 C 0 -2.609375 -19.5625 -2.609375 -19.5625 -2.609375 C -19.5625 -2.609375 -19.5625 -5.453125 -19.5625 -5.453125 C -19.5625 -5.453125 -16.015625 -5.453125 -16.015625 -5.453125 C -18.921875 -7.234375 -20.125 -8.765625 -20.125 -10.78125 C -20.125 -11.203125 -20.078125 -11.453125 -20.015625 -11.984375 C -20.015625 -11.984375 -16.828125 -11.984375 -16.828125 -11.984375 Z M -16.828125 -11.984375 "/>
</g>
<g id="glyph-14-0-28eb449b">
<path d="M -19.5625 -26.421875 C -19.5625 -26.421875 0 -20.6875 0 -20.6875 C 0 -20.6875 0 -17.140625 0 -17.140625 C 0 -17.140625 -15.34375 -13.171875 -15.34375 -13.171875 C -15.34375 -13.171875 0 -9.40625 0 -9.40625 C 0 -9.40625 0 -5.890625 0 -5.890625 C 0 -5.890625 -19.5625 -0.21875 -19.5625 -0.21875 C -19.5625 -0.21875 -19.5625 -3.65625 -19.5625 -3.65625 C -19.5625 -3.65625 -4.328125 -7.65625 -4.328125 -7.65625 C -4.328125 -7.65625 -19.5625 -11.390625 -19.5625 -11.390625 C -19.5625 -11.390625 -19.5625 -15.1875 -19.5625 -15.1875 C -19.5625 -15.1875 -4.328125 -19.03125 -4.328125 -19.03125 C -4.328125 -19.03125 -19.5625 -22.921875 -19.5625 -22.921875 C -19.5625 -22.921875 -19.5625 -26.421875 -19.5625 -26.421875 Z M -19.5625 -26.421875 "/>
</g>
<g id="glyph-14-1-28eb449b">
<path d="M 0 -18.140625 C 0 -18.140625 0 -15.046875 0 -15.046875 C 0 -15.046875 -13.546875 -15.046875 -13.546875 -15.046875 C -16.125 -15.046875 -17.390625 -13.21875 -17.390625 -11.015625 C -17.390625 -7.796875 -14.78125 -5.71875 -10.78125 -5.71875 C -10.78125 -5.71875 0 -5.71875 0 -5.71875 C 0 -5.71875 0 -2.609375 0 -2.609375 C 0 -2.609375 -27.21875 -2.609375 -27.21875 -2.609375 C -27.21875 -2.609375 -27.21875 -5.71875 -27.21875 -5.71875 C -27.21875 -5.71875 -16.875 -5.71875 -16.875 -5.71875 C -19.265625 -7.546875 -20.125 -9.21875 -20.125 -11.984375 C -20.125 -15.796875 -18.0625 -18.140625 -14.78125 -18.140625 C -14.78125 -18.140625 0 -18.140625 0 -18.140625 Z M 0 -18.140625 "/>
</g>
<g id="glyph-14-2-28eb449b">
</g>
<g id="glyph-14-3-28eb449b">
<path d="M 0 -5.71875 C 0 -5.71875 0 -2.609375 0 -2.609375 C 0 -2.609375 -19.5625 -2.609375 -19.5625 -2.609375 C -19.5625 -2.609375 -19.5625 -5.71875 -19.5625 -5.71875 C -19.5625 -5.71875 0 -5.71875 0 -5.71875 Z M -22.515625 -6.125 C -22.515625 -6.125 -22.515625 -2.234375 -22.515625 -2.234375 C -22.515625 -2.234375 -26.390625 -2.234375 -26.390625 -2.234375 C -26.390625 -2.234375 -26.390625 -6.125 -26.390625 -6.125 C -26.390625 -6.125 -22.515625 -6.125 -22.515625 -6.125 Z M -22.515625 -6.125 "/>
</g>
<g id="glyph-15-0-28eb449b">
<path d="M 0 -9.484375 C 0.1875 -8.4375 0.265625 -7.6875 0.265625 -6.9375 C 0.265625 -4.515625 -0.859375 -3.171875 -2.84375 -3.171875 C -2.84375 -3.171875 -17.015625 -3.171875 -17.015625 -3.171875 C -17.015625 -3.171875 -17.015625 -0.515625 -17.015625 -0.515625 C -17.015625 -0.515625 -19.5625 -0.515625 -19.5625 -0.515625 C -19.5625 -0.515625 -19.5625 -3.171875 -19.5625 -3.171875 C -19.5625 -3.171875 -24.9375 -3.171875 -24.9375 -3.171875 C -24.9375 -3.171875 -24.9375 -6.265625 -24.9375 -6.265625 C -24.9375 -6.265625 -19.5625 -6.265625 -19.5625 -6.265625 C -19.5625 -6.265625 -19.5625 -9.484375 -19.5625 -9.484375 C -19.5625 -9.484375 -17.015625 -9.484375 -17.015625 -9.484375 C -17.015625 -9.484375 -17.015625 -6.265625 -17.015625 -6.265625 C -17.015625 -6.265625 -4.21875 -6.265625 -4.21875 -6.265625 C -2.84375 -6.265625 -2.46875 -6.640625 -2.46875 -7.984375 C -2.46875 -8.578125 -2.5 -9.078125 -2.609375 -9.484375 C -2.609375 -9.484375 0 -9.484375 0 -9.484375 Z M 0 -9.484375 "/>
</g>
<g id="glyph-16-0-28eb449b">
</g>
<g id="glyph-17-0-28eb449b">
<path d="M -8.890625 -19.15625 C -8.890625 -19.15625 -8.890625 -4.734375 -8.890625 -4.734375 C -4.40625 -4.8125 -2.3125 -7.234375 -2.3125 -10.484375 C -2.3125 -12.984375 -3.359375 -14.75 -5.9375 -15.609375 C -5.9375 -15.609375 -5.9375 -18.734375 -5.9375 -18.734375 C -1.984375 -17.953125 0.5625 -14.859375 0.5625 -10.375 C 0.5625 -4.890625 -3.25 -1.5 -9.671875 -1.5 C -16.09375 -1.5 -20.125 -5 -20.125 -10.453125 C -20.125 -14.109375 -18.171875 -17.09375 -14.96875 -18.359375 C -13.515625 -18.921875 -11.71875 -19.15625 -8.890625 -19.15625 Z M -11.640625 -15.828125 C -14.703125 -15.828125 -17.25 -13.46875 -17.25 -10.421875 C -17.25 -7.28125 -14.890625 -5.078125 -11.421875 -4.8125 C -11.421875 -4.8125 -11.421875 -15.796875 -11.421875 -15.796875 C -11.5 -15.828125 -11.640625 -15.828125 -11.640625 -15.828125 Z M -11.640625 -15.828125 "/>
</g>
<g id="glyph-18-0-28eb449b">
<path d="M 19.96875 -0.078125 C 18.96875 0.1875 18.484375 0.265625 17.84375 0.265625 C 16.3125 0.265625 14.96875 -0.828125 14.625 -2.3125 C 12.921875 -0.484375 10.484375 0.5625 7.984375 0.5625 C 4.03125 0.5625 1.5625 -1.53125 1.5625 -5.078125 C 1.5625 -7.46875 2.71875 -9.21875 5 -10.15625 C 6.203125 -10.640625 6.875 -10.78125 11.265625 -11.34375 C 13.734375 -11.640625 14.515625 -12.203125 14.515625 -13.515625 C 14.515625 -13.515625 14.515625 -14.328125 14.515625 -14.328125 C 14.515625 -16.203125 12.953125 -17.25 10.15625 -17.25 C 7.234375 -17.25 5.828125 -16.15625 5.5625 -13.78125 C 5.5625 -13.78125 2.421875 -13.78125 2.421875 -13.78125 C 2.609375 -18.296875 5.53125 -20.125 10.265625 -20.125 C 15.078125 -20.125 17.625 -18.25 17.625 -14.78125 C 17.625 -14.78125 17.625 -3.875 17.625 -3.875 C 17.625 -2.90625 18.21875 -2.359375 19.296875 -2.359375 C 19.484375 -2.359375 19.640625 -2.359375 19.96875 -2.421875 C 19.96875 -2.421875 19.96875 -0.078125 19.96875 -0.078125 Z M 14.515625 -6.75 C 14.515625 -6.75 14.515625 -9.671875 14.515625 -9.671875 C 13.46875 -9.1875 12.796875 -9.03125 9.515625 -8.578125 C 6.203125 -8.09375 4.8125 -7.203125 4.8125 -5.15625 C 4.8125 -3.03125 6.234375 -2.171875 8.65625 -2.171875 C 11.6875 -2.171875 14.515625 -3.953125 14.515625 -6.75 Z M 14.515625 -6.75 "/>
</g>
</g>
</defs>
<path fill-rule="nonzero" fill="rgb(100%, 100%, 100%)" fill-opacity="1" d="M 0 0 L 2133.332031 0 L 2133.332031 1066.667969 L 0 1066.667969 Z M 0 0 "/>
<path fill-rule="nonzero" fill="rgb(100%, 100%, 100%)" fill-opacity="1" d="M 197.332031 909.332031 L 1021.332031 909.332031 L 1021.332031 42.664062 L 197.332031 42.664062 Z M 197.332031 909.332031 "/>
<path fill-rule="nonzero" fill="rgb(100%, 100%, 100%)" fill-opacity="1" d="M 1266.667969 909.332031 L 2090.667969 909.332031 L 2090.667969 42.664062 L 1266.667969 42.664062 Z M 1266.667969 909.332031 "/>
<path fill="none" stroke-width="1" stroke-linecap="butt" stroke-linejoin="miter" stroke="rgb(0%, 0%, 0%)" stroke-opacity="0.12" stroke-miterlimit="1.154701" d="M 88.045898 340.999512 L 88.045898 16.000488 " transform="matrix(2.666667, 0, 0, 2.666667, 0, 0)"/>
<path fill="none" stroke-width="1" stroke-linecap="butt" stroke-linejoin="miter" stroke="rgb(0%, 0%, 0%)" stroke-opacity="0.12" stroke-miterlimit="1.154701" d="M 158.273438 340.999512 L 158.273438 16.000488 " transform="matrix(2.666667, 0, 0, 2.666667, 0, 0)"/>
<path fill="none" stroke-width="1" stroke-linecap="butt" stroke-linejoin="miter" stroke="rgb(0%, 0%, 0%)" stroke-opacity="0.12" stroke-miterlimit="1.154701" d="M 228.499512 340.999512 L 228.499512 16.000488 " transform="matrix(2.666667, 0, 0, 2.666667, 0, 0)"/>
<path fill="none" stroke-width="1" stroke-linecap="butt" stroke-linejoin="miter" stroke="rgb(0%, 0%, 0%)" stroke-opacity="0.12" stroke-miterlimit="1.154701" d="M 298.727051 340.999512 L 298.727051 16.000488 " transform="matrix(2.666667, 0, 0, 2.666667, 0, 0)"/>
<path fill="none" stroke-width="1" stroke-linecap="butt" stroke-linejoin="miter" stroke="rgb(0%, 0%, 0%)" stroke-opacity="0.12" stroke-miterlimit="1.154701" d="M 368.95459 340.999512 L 368.95459 16.000488 " transform="matrix(2.666667, 0, 0, 2.666667, 0, 0)"/>
<path fill="none" stroke-width="1" stroke-linecap="butt" stroke-linejoin="miter" stroke="rgb(0%, 0%, 0%)" stroke-opacity="0.12" stroke-miterlimit="1.154701" d="M 73.999512 277.567383 L 382.999512 277.567383 " transform="matrix(2.666667, 0, 0, 2.666667, 0, 0)"/>
<path fill="none" stroke-width="1" stroke-linecap="butt" stroke-linejoin="miter" stroke="rgb(0%, 0%, 0%)" stroke-opacity="0.12" stroke-miterlimit="1.154701" d="M 73.999512 178.498535 L 382.999512 178.498535 " transform="matrix(2.666667, 0, 0, 2.666667, 0, 0)"/>
<path fill="none" stroke-width="1" stroke-linecap="butt" stroke-linejoin="miter" stroke="rgb(0%, 0%, 0%)" stroke-opacity="0.12" stroke-miterlimit="1.154701" d="M 73.999512 79.431152 L 382.999512 79.431152 " transform="matrix(2.666667, 0, 0, 2.666667, 0, 0)"/>
<path fill="none" stroke-width="1" stroke-linecap="butt" stroke-linejoin="miter" stroke="rgb(0%, 0%, 0%)" stroke-opacity="0.12" stroke-miterlimit="1.154701" d="M 489.04541 340.999512 L 489.04541 16.000488 " transform="matrix(2.666667, 0, 0, 2.666667, 0, 0)"/>
<path fill="none" stroke-width="1" stroke-linecap="butt" stroke-linejoin="miter" stroke="rgb(0%, 0%, 0%)" stroke-opacity="0.12" stroke-miterlimit="1.154701" d="M 559.272949 340.999512 L 559.272949 16.000488 " transform="matrix(2.666667, 0, 0, 2.666667, 0, 0)"/>
<path fill="none" stroke-width="1" stroke-linecap="butt" stroke-linejoin="miter" stroke="rgb(0%, 0%, 0%)" stroke-opacity="0.12" stroke-miterlimit="1.154701" d="M 629.500488 340.999512 L 629.500488 16.000488 " transform="matrix(2.666667, 0, 0, 2.666667, 0, 0)"/>
<path fill="none" stroke-width="1" stroke-linecap="butt" stroke-linejoin="miter" stroke="rgb(0%, 0%, 0%)" stroke-opacity="0.12" stroke-miterlimit="1.154701" d="M 699.726562 340.999512 L 699.726562 16.000488 " transform="matrix(2.666667, 0, 0, 2.666667, 0, 0)"/>
<path fill="none" stroke-width="1" stroke-linecap="butt" stroke-linejoin="miter" stroke="rgb(0%, 0%, 0%)" stroke-opacity="0.12" stroke-miterlimit="1.154701" d="M 769.954102 340.999512 L 769.954102 16.000488 " transform="matrix(2.666667, 0, 0, 2.666667, 0, 0)"/>
<path fill="none" stroke-width="1" stroke-linecap="butt" stroke-linejoin="miter" stroke="rgb(0%, 0%, 0%)" stroke-opacity="0.12" stroke-miterlimit="1.154701" d="M 475.000488 277.87793 L 784.000488 277.87793 " transform="matrix(2.666667, 0, 0, 2.666667, 0, 0)"/>
<path fill="none" stroke-width="1" stroke-linecap="butt" stroke-linejoin="miter" stroke="rgb(0%, 0%, 0%)" stroke-opacity="0.12" stroke-miterlimit="1.154701" d="M 475.000488 175.992188 L 784.000488 175.992188 " transform="matrix(2.666667, 0, 0, 2.666667, 0, 0)"/>
<path fill="none" stroke-width="1" stroke-linecap="butt" stroke-linejoin="miter" stroke="rgb(0%, 0%, 0%)" stroke-opacity="0.12" stroke-miterlimit="1.154701" d="M 475.000488 74.10791 L 784.000488 74.10791 " transform="matrix(2.666667, 0, 0, 2.666667, 0, 0)"/>
<g fill="rgb(0%, 0%, 0%)" fill-opacity="1">
<use xlink:href="#glyph-0-0-28eb449b" x="599.999987" y="1017.514667"/>
</g>
<g fill="rgb(0%, 0%, 0%)" fill-opacity="1">
<use xlink:href="#glyph-1-0-28eb449b" x="197.939878" y="966.021337"/>
<use xlink:href="#glyph-1-1-28eb449b" x="219.742544" y="966.021337"/>
<use xlink:href="#glyph-1-2-28eb449b" x="240.499875" y="966.021337"/>
<use xlink:href="#glyph-1-3-28eb449b" x="250.878542" y="966.021337"/>
</g>
<g fill="rgb(0%, 0%, 0%)" fill-opacity="1">
<use xlink:href="#glyph-1-0-28eb449b" x="385.212579" y="966.021337"/>
<use xlink:href="#glyph-1-3-28eb449b" x="407.015245" y="966.021337"/>
<use xlink:href="#glyph-1-2-28eb449b" x="427.772576" y="966.021337"/>
<use xlink:href="#glyph-1-4-28eb449b" x="438.151243" y="966.021337"/>
</g>
<g fill="rgb(0%, 0%, 0%)" fill-opacity="1">
<use xlink:href="#glyph-1-3-28eb449b" x="583.386655" y="966.021337"/>
<use xlink:href="#glyph-1-2-28eb449b" x="604.143988" y="966.021337"/>
<use xlink:href="#glyph-1-3-28eb449b" x="614.522653" y="966.021337"/>
</g>
<g fill="rgb(0%, 0%, 0%)" fill-opacity="1">
<use xlink:href="#glyph-1-3-28eb449b" x="770.659356" y="966.021337"/>
<use xlink:href="#glyph-1-2-28eb449b" x="791.416688" y="966.021337"/>
<use xlink:href="#glyph-1-4-28eb449b" x="801.795354" y="966.021337"/>
</g>
<g fill="rgb(0%, 0%, 0%)" fill-opacity="1">
<use xlink:href="#glyph-1-1-28eb449b" x="957.932138" y="966.021337"/>
<use xlink:href="#glyph-1-2-28eb449b" x="978.689471" y="966.021337"/>
<use xlink:href="#glyph-1-3-28eb449b" x="989.068136" y="966.021337"/>
</g>
<g fill="rgb(0%, 0%, 0%)" fill-opacity="1">
<use xlink:href="#glyph-2-0-28eb449b" x="76.543994" y="581.802664"/>
</g>
<g fill="rgb(0%, 0%, 0%)" fill-opacity="1">
<use xlink:href="#glyph-3-0-28eb449b" x="76.543995" y="560.074667"/>
</g>
<g fill="rgb(0%, 0%, 0%)" fill-opacity="1">
<use xlink:href="#glyph-4-0-28eb449b" x="76.543996" y="547.642666"/>
</g>
<g fill="rgb(0%, 0%, 0%)" fill-opacity="1">
<use xlink:href="#glyph-5-0-28eb449b" x="76.543997" y="528.976"/>
</g>
<g fill="rgb(0%, 0%, 0%)" fill-opacity="1">
<use xlink:href="#glyph-3-1-28eb449b" x="76.543998" y="518.597335"/>
</g>
<g fill="rgb(0%, 0%, 0%)" fill-opacity="1">
<use xlink:href="#glyph-4-1-28eb449b" x="76.543998" y="508.218668"/>
</g>
<g fill="rgb(0%, 0%, 0%)" fill-opacity="1">
<use xlink:href="#glyph-2-1-28eb449b" x="76.543999" y="497.840001"/>
</g>
<g fill="rgb(0%, 0%, 0%)" fill-opacity="1">
<use xlink:href="#glyph-6-0-28eb449b" x="76.544" y="487.461336"/>
</g>
<g fill="rgb(0%, 0%, 0%)" fill-opacity="1">
<use xlink:href="#glyph-4-2-28eb449b" x="76.544001" y="465.658674"/>
</g>
<g fill="rgb(0%, 0%, 0%)" fill-opacity="1">
<use xlink:href="#glyph-7-0-28eb449b" x="76.544001" y="455.280014"/>
</g>
<g fill="rgb(0%, 0%, 0%)" fill-opacity="1">
<use xlink:href="#glyph-3-2-28eb449b" x="76.544003" y="434.522681"/>
</g>
<g fill="rgb(0%, 0%, 0%)" fill-opacity="1">
<use xlink:href="#glyph-2-2-28eb449b" x="76.544004" y="413.76535"/>
</g>
<g fill="rgb(0%, 0%, 0%)" fill-opacity="1">
<use xlink:href="#glyph-6-1-28eb449b" x="76.544005" y="403.386688"/>
</g>
<g fill="rgb(0%, 0%, 0%)" fill-opacity="1">
<use xlink:href="#glyph-4-3-28eb449b" x="76.544006" y="382.629369"/>
</g>
<g fill="rgb(0%, 0%, 0%)" fill-opacity="1">
<use xlink:href="#glyph-1-3-28eb449b" x="98.015999" y="753.786596"/>
<use xlink:href="#glyph-1-2-28eb449b" x="118.773333" y="753.786596"/>
<use xlink:href="#glyph-1-5-28eb449b" x="129.151998" y="753.786596"/>
<use xlink:href="#glyph-1-4-28eb449b" x="149.909329" y="753.786596"/>
</g>
<g fill="rgb(0%, 0%, 0%)" fill-opacity="1">
<use xlink:href="#glyph-1-1-28eb449b" x="98.015999" y="489.605938"/>
<use xlink:href="#glyph-1-2-28eb449b" x="118.773333" y="489.605938"/>
<use xlink:href="#glyph-1-3-28eb449b" x="129.151998" y="489.605938"/>
<use xlink:href="#glyph-1-3-28eb449b" x="149.909329" y="489.605938"/>
</g>
<g fill="rgb(0%, 0%, 0%)" fill-opacity="1">
<use xlink:href="#glyph-1-1-28eb449b" x="98.015999" y="225.425239"/>
<use xlink:href="#glyph-1-2-28eb449b" x="118.773333" y="225.425239"/>
<use xlink:href="#glyph-1-6-28eb449b" x="129.151998" y="225.425239"/>
<use xlink:href="#glyph-1-4-28eb449b" x="149.909329" y="225.425239"/>
</g>
<path fill="none" stroke-width="2" stroke-linecap="butt" stroke-linejoin="miter" stroke="rgb(0%, 44.705883%, 69.803923%)" stroke-opacity="1" stroke-miterlimit="2" d="M 88.045898 325.582031 L 88.741699 325.562988 L 89.4375 325.505859 L 90.133301 325.412109 L 90.829102 325.280273 L 92.775879 324.717773 L 94.722656 323.871094 L 96.669434 322.743164 L 98.616211 321.341309 L 100.562988 319.668457 L 102.509766 317.731934 L 104.456543 315.534668 L 106.40332 313.08252 L 109.062012 309.32959 L 111.720703 305.124023 L 114.379395 300.476074 L 117.038086 295.398926 L 119.194336 290.978027 L 121.349121 286.300781 L 123.505371 281.378906 L 125.660156 276.225586 L 129.991699 265.231934 L 134.321777 253.467773 L 136.955566 245.985352 L 139.589355 238.283203 L 142.22168 230.387695 L 144.855469 222.319336 L 153.490723 195.013184 L 162.130371 167.162109 L 167.400879 150.357422 L 172.671387 133.977539 L 176.991211 121.026855 L 181.311035 108.622559 L 183.943359 101.378906 L 186.575684 94.401855 L 189.208008 87.717773 L 191.840332 81.348633 L 193.998047 76.381348 L 196.155762 71.655762 L 198.313477 67.185059 L 200.471191 62.982422 L 202.634766 59.050781 L 204.796875 55.40625 L 206.960449 52.054688 L 209.124023 49.001953 L 211.757812 45.691406 L 214.391602 42.839355 L 217.026855 40.453125 L 219.660645 38.541504 L 221.819824 37.334473 L 223.979004 36.457031 L 226.138184 35.913574 L 228.297363 35.709961 L 230.455078 35.849121 L 232.612793 36.328125 L 234.771973 37.142578 L 236.929688 38.286621 L 239.564941 40.125 L 242.200195 42.440918 L 244.836914 45.222656 L 247.472168 48.464355 L 249.632812 51.458496 L 251.793457 54.751465 L 253.954102 58.335938 L 256.114746 62.208984 L 258.748535 67.30957 L 261.380859 72.808594 L 264.014648 78.682617 L 266.646973 84.908203 L 270.963867 95.80957 L 275.279297 107.47998 L 279.602051 119.834473 L 283.924805 132.745605 L 289.193848 149.081543 L 294.464355 165.858398 L 303.102539 193.705078 L 313.630371 226.894043 L 317.945801 239.862305 L 322.259766 252.294434 L 326.588379 264.121582 L 330.916992 275.191406 L 333.550781 281.510742 L 336.18457 287.48291 L 338.818359 293.087402 L 341.452148 298.296387 L 343.598145 302.233887 L 345.742676 305.888672 L 347.888672 309.254883 L 350.033203 312.325195 L 351.997559 314.872559 L 353.961914 317.160645 L 355.924805 319.185059 L 357.88916 320.941406 L 359.853516 322.423828 L 361.817871 323.629395 L 363.780762 324.549316 L 365.745117 325.182129 L 366.547852 325.356445 L 367.350586 325.480957 L 368.151855 325.557129 L 368.95459 325.582031 " transform="matrix(2.666667, 0, 0, 2.666667, 0, 0)"/>
<path fill="none" stroke-width="2" stroke-linecap="butt" stroke-linejoin="miter" stroke="rgb(90.196079%, 62.352943%, 0%)" stroke-opacity="1" stroke-miterlimit="2" d="M 88.045898 326.226562 L 88.741699 326.208984 L 89.4375 326.15332 L 90.133301 326.061035 L 90.829102 325.933594 L 92.775879 325.382812 L 94.722656 324.550781 L 96.669434 323.443359 L 98.616211 322.063477 L 100.562988 320.414062 L 102.509766 318.500977 L 104.456543 316.325684 L 106.40332 313.894043 L 109.062012 310.164551 L 111.720703 305.972168 L 114.379395 301.327148 L 117.038086 296.239746 L 119.194336 291.79834 L 121.349121 287.090332 L 123.505371 282.128906 L 125.660156 276.925781 L 127.82666 271.470703 L 129.991699 265.801758 L 132.156738 259.930664 L 134.321777 253.87207 L 136.955566 246.269531 L 139.589355 238.437012 L 142.22168 230.39502 L 144.855469 222.171387 L 153.490723 194.277832 L 162.130371 165.763184 L 167.400879 148.541016 L 172.671387 131.743652 L 176.991211 118.45752 L 181.311035 105.732422 L 183.943359 98.29834 L 186.575684 91.138184 L 189.208008 84.276855 L 191.840332 77.736328 L 193.998047 72.634277 L 196.155762 67.779785 L 198.313477 63.18457 L 200.471191 58.864746 L 202.634766 54.820312 L 204.796875 51.071777 L 206.960449 47.62207 L 209.124023 44.477051 L 211.757812 41.068359 L 214.391602 38.128418 L 217.026855 35.66748 L 219.660645 33.694336 L 221.819824 32.449219 L 223.979004 31.543945 L 226.138184 30.98291 L 228.297363 30.773438 L 230.455078 30.916992 L 232.612793 31.410645 L 234.771973 32.251465 L 236.929688 33.432129 L 239.564941 35.329102 L 242.200195 37.716797 L 244.836914 40.584961 L 247.472168 43.924805 L 249.632812 47.008301 L 251.793457 50.396484 L 253.954102 54.084961 L 256.114746 58.069336 L 258.748535 63.312012 L 261.380859 68.963379 L 264.014648 74.998535 L 266.646973 81.392578 L 270.963867 92.58252 L 275.279297 104.560547 L 279.602051 117.234375 L 283.924805 130.479492 L 289.193848 147.231445 L 294.464355 164.428711 L 298.78418 178.68457 L 303.102539 192.938965 L 308.367188 210.111328 L 313.630371 226.835449 L 315.788086 233.503418 L 317.945801 240.04248 L 320.102051 246.439453 L 322.259766 252.679688 L 326.588379 264.676758 L 330.916992 275.881348 L 333.550781 282.260742 L 336.18457 288.282715 L 338.818359 293.917969 L 341.452148 299.145996 L 343.598145 303.086426 L 345.742676 306.736816 L 347.888672 310.089844 L 350.033203 313.142578 L 351.997559 315.669434 L 353.961914 317.935547 L 355.924805 319.936523 L 357.88916 321.669434 L 359.853516 323.129883 L 361.817871 324.313477 L 363.780762 325.217285 L 365.745117 325.836914 L 366.547852 326.006836 L 367.350586 326.129883 L 368.151855 326.203125 L 368.95459 326.226562 " transform="matrix(2.666667, 0, 0, 2.666667, 0, 0)"/>
<path fill="none" stroke-width="2" stroke-linecap="butt" stroke-linejoin="miter" stroke="rgb(50.196081%, 50.196081%, 50.196081%)" stroke-opacity="1" stroke-dasharray="6 6" stroke-miterlimit="2" d="M 88.045898 326.206055 L 88.741699 326.173828 L 89.4375 326.106445 L 90.133301 326.018555 L 90.829102 325.905762 L 92.775879 325.372559 L 94.722656 324.540527 L 96.669434 323.456543 L 98.616211 322.083984 L 100.562988 320.438965 L 102.509766 318.531738 L 104.456543 316.353516 L 106.40332 313.914551 L 109.062012 310.171875 L 111.720703 305.963379 L 114.379395 301.303711 L 117.038086 296.210449 L 119.194336 291.774902 L 121.349121 287.074219 L 123.505371 282.123047 L 125.660156 276.930176 L 127.82666 271.483887 L 129.991699 265.819336 L 132.156738 259.951172 L 134.321777 253.889648 L 136.955566 246.282715 L 139.589355 238.439941 L 142.22168 230.390625 L 144.855469 222.159668 L 153.490723 194.269043 L 162.130371 165.770508 L 167.400879 148.554199 L 172.671387 131.752441 L 176.991211 118.45459 L 181.311035 105.714844 L 183.943359 98.279297 L 186.575684 91.120605 L 189.208008 84.265137 L 191.840332 77.736328 L 193.998047 72.644531 L 196.155762 67.800293 L 198.313477 63.212402 L 200.471191 58.892578 L 202.634766 54.842285 L 204.796875 51.080566 L 206.960449 47.617676 L 209.124023 44.460938 L 211.757812 41.040527 L 214.391602 38.097656 L 217.026855 35.642578 L 219.660645 33.682617 L 221.819824 32.452148 L 223.979004 31.560059 L 226.138184 31.012207 L 228.297363 30.807129 L 230.455078 30.947754 L 232.612793 31.431152 L 234.771973 32.257324 L 236.929688 33.42334 L 239.564941 35.307129 L 242.200195 37.6875 L 244.836914 40.557129 L 247.472168 43.905762 L 249.632812 47.000977 L 251.793457 50.402344 L 253.954102 54.104004 L 256.114746 58.095703 L 258.748535 63.339844 L 261.380859 68.982422 L 264.014648 75.004395 L 266.646973 81.385254 L 270.963867 92.563477 L 275.279297 104.542969 L 279.602051 117.22998 L 283.924805 130.488281 L 289.193848 147.246094 L 294.464355 164.436035 L 303.102539 192.931641 L 313.630371 226.82666 L 315.788086 233.501953 L 317.945801 240.04834 L 320.102051 246.452637 L 322.259766 252.697266 L 326.588379 264.695801 L 330.916992 275.887207 L 333.550781 282.254883 L 336.18457 288.263672 L 338.818359 293.891602 L 341.452148 299.118164 L 343.598145 303.067383 L 345.742676 306.729492 L 347.888672 310.098633 L 350.033203 313.161621 L 351.997559 315.695801 L 353.961914 317.966309 L 355.924805 319.964355 L 357.88916 321.691406 L 359.853516 323.147461 L 361.817871 324.309082 L 363.780762 325.205566 L 365.745117 325.819336 L 366.547852 325.97168 L 367.350586 326.081543 L 368.151855 326.165039 L 368.95459 326.206055 " transform="matrix(2.666667, 0, 0, 2.666667, 0, 0)"/>
<g fill="rgb(0%, 0%, 0%)" fill-opacity="1">
<use xlink:href="#glyph-0-0-28eb449b" x="1669.333296" y="1017.514667"/>
</g>
<g fill="rgb(0%, 0%, 0%)" fill-opacity="1">
<use xlink:href="#glyph-1-0-28eb449b" x="1267.273147" y="966.021337"/>
<use xlink:href="#glyph-1-1-28eb449b" x="1289.075812" y="966.021337"/>
<use xlink:href="#glyph-1-2-28eb449b" x="1309.833144" y="966.021337"/>
<use xlink:href="#glyph-1-3-28eb449b" x="1320.211811" y="966.021337"/>
</g>
<g fill="rgb(0%, 0%, 0%)" fill-opacity="1">
<use xlink:href="#glyph-1-0-28eb449b" x="1454.545848" y="966.021337"/>
<use xlink:href="#glyph-1-3-28eb449b" x="1476.348513" y="966.021337"/>
<use xlink:href="#glyph-1-2-28eb449b" x="1497.105845" y="966.021337"/>
<use xlink:href="#glyph-1-4-28eb449b" x="1507.484512" y="966.021337"/>
</g>
<g fill="rgb(0%, 0%, 0%)" fill-opacity="1">
<use xlink:href="#glyph-1-3-28eb449b" x="1652.719964" y="966.021337"/>
<use xlink:href="#glyph-1-2-28eb449b" x="1673.477297" y="966.021337"/>
<use xlink:href="#glyph-1-3-28eb449b" x="1683.855963" y="966.021337"/>
</g>
<g fill="rgb(0%, 0%, 0%)" fill-opacity="1">
<use xlink:href="#glyph-1-3-28eb449b" x="1839.992747" y="966.021337"/>
<use xlink:href="#glyph-1-2-28eb449b" x="1860.750079" y="966.021337"/>
<use xlink:href="#glyph-1-4-28eb449b" x="1871.128745" y="966.021337"/>
</g>
<g fill="rgb(0%, 0%, 0%)" fill-opacity="1">
<use xlink:href="#glyph-1-1-28eb449b" x="2027.265366" y="966.021337"/>
<use xlink:href="#glyph-1-2-28eb449b" x="2048.022699" y="966.021337"/>
<use xlink:href="#glyph-1-3-28eb449b" x="2058.401364" y="966.021337"/>
</g>
<g fill="rgb(0%, 0%, 0%)" fill-opacity="1">
<use xlink:href="#glyph-8-0-28eb449b" x="1103.317268" y="720.813301"/>
</g>
<g fill="rgb(0%, 0%, 0%)" fill-opacity="1">
<use xlink:href="#glyph-9-0-28eb449b" x="1103.31727" y="693.858631"/>
<use xlink:href="#glyph-9-1-28eb449b" x="1103.31727" y="685.570626"/>
</g>
<g fill="rgb(0%, 0%, 0%)" fill-opacity="1">
<use xlink:href="#glyph-8-1-28eb449b" x="1103.31727" y="675.191964"/>
</g>
<g fill="rgb(0%, 0%, 0%)" fill-opacity="1">
<use xlink:href="#glyph-10-0-28eb449b" x="1103.317271" y="664.813302"/>
</g>
<g fill="rgb(0%, 0%, 0%)" fill-opacity="1">
<use xlink:href="#glyph-11-0-28eb449b" x="1103.317272" y="644.055979"/>
</g>
<g fill="rgb(0%, 0%, 0%)" fill-opacity="1">
<use xlink:href="#glyph-12-0-28eb449b" x="1103.317273" y="631.623982"/>
</g>
<g fill="rgb(0%, 0%, 0%)" fill-opacity="1">
<use xlink:href="#glyph-8-2-28eb449b" x="1103.317274" y="610.866648"/>
<use xlink:href="#glyph-8-3-28eb449b" x="1103.317275" y="590.109314"/>
<use xlink:href="#glyph-8-4-28eb449b" x="1103.317277" y="571.442648"/>
</g>
<g fill="rgb(0%, 0%, 0%)" fill-opacity="1">
<use xlink:href="#glyph-13-0-28eb449b" x="1103.317278" y="550.685319"/>
</g>
<g fill="rgb(0%, 0%, 0%)" fill-opacity="1">
<use xlink:href="#glyph-14-0-28eb449b" x="1103.317279" y="540.306647"/>
</g>
<g fill="rgb(0%, 0%, 0%)" fill-opacity="1">
<use xlink:href="#glyph-11-1-28eb449b" x="1103.31728" y="513.351979"/>
</g>
<g fill="rgb(0%, 0%, 0%)" fill-opacity="1">
<use xlink:href="#glyph-15-0-28eb449b" x="1103.317281" y="505.063975"/>
</g>
<g fill="rgb(0%, 0%, 0%)" fill-opacity="1">
<use xlink:href="#glyph-14-1-28eb449b" x="1103.317281" y="494.685314"/>
</g>
<g fill="rgb(0%, 0%, 0%)" fill-opacity="1">
<use xlink:href="#glyph-16-0-28eb449b" x="1103.317282" y="473.927991"/>
</g>
<g fill="rgb(0%, 0%, 0%)" fill-opacity="1">
<use xlink:href="#glyph-8-5-28eb449b" x="1103.317283" y="463.549331"/>
<use xlink:href="#glyph-8-6-28eb449b" x="1103.317284" y="442.792009"/>
</g>
<g fill="rgb(0%, 0%, 0%)" fill-opacity="1">
<use xlink:href="#glyph-9-2-28eb449b" x="1103.317285" y="434.504004"/>
</g>
<g fill="rgb(0%, 0%, 0%)" fill-opacity="1">
<use xlink:href="#glyph-13-1-28eb449b" x="1103.317286" y="422.072"/>
</g>
<g fill="rgb(0%, 0%, 0%)" fill-opacity="1">
<use xlink:href="#glyph-17-0-28eb449b" x="1103.317286" y="409.639994"/>
</g>
<g fill="rgb(0%, 0%, 0%)" fill-opacity="1">
<use xlink:href="#glyph-11-2-28eb449b" x="1103.317288" y="388.882675"/>
</g>
<g fill="rgb(0%, 0%, 0%)" fill-opacity="1">
<use xlink:href="#glyph-14-2-28eb449b" x="1103.317289" y="370.216009"/>
</g>
<g fill="rgb(0%, 0%, 0%)" fill-opacity="1">
<use xlink:href="#glyph-8-7-28eb449b" x="1103.317289" y="359.837347"/>
<use xlink:href="#glyph-8-8-28eb449b" x="1103.317291" y="341.170681"/>
<use xlink:href="#glyph-8-9-28eb449b" x="1103.317292" y="320.413357"/>
<use xlink:href="#glyph-8-10-28eb449b" x="1103.317292" y="312.125353"/>
<use xlink:href="#glyph-8-11-28eb449b" x="1103.317293" y="291.368039"/>
</g>
<g fill="rgb(0%, 0%, 0%)" fill-opacity="1">
<use xlink:href="#glyph-14-3-28eb449b" x="1103.317294" y="280.989377"/>
</g>
<g fill="rgb(0%, 0%, 0%)" fill-opacity="1">
<use xlink:href="#glyph-8-8-28eb449b" x="1103.317295" y="272.701373"/>
<use xlink:href="#glyph-8-2-28eb449b" x="1103.317296" y="251.944049"/>
</g>
<g fill="rgb(0%, 0%, 0%)" fill-opacity="1">
<use xlink:href="#glyph-1-0-28eb449b" x="1124.789312" y="754.617224"/>
<use xlink:href="#glyph-1-3-28eb449b" x="1146.591975" y="754.617224"/>
<use xlink:href="#glyph-1-2-28eb449b" x="1167.349309" y="754.617224"/>
<use xlink:href="#glyph-1-3-28eb449b" x="1177.727976" y="754.617224"/>
<use xlink:href="#glyph-1-1-28eb449b" x="1198.48531" y="754.617224"/>
<use xlink:href="#glyph-1-3-28eb449b" x="1219.242638" y="754.617224"/>
</g>
<g fill="rgb(0%, 0%, 0%)" fill-opacity="1">
<use xlink:href="#glyph-1-0-28eb449b" x="1124.789312" y="482.922426"/>
<use xlink:href="#glyph-1-3-28eb449b" x="1146.591975" y="482.922426"/>
<use xlink:href="#glyph-1-2-28eb449b" x="1167.349309" y="482.922426"/>
<use xlink:href="#glyph-1-3-28eb449b" x="1177.727976" y="482.922426"/>
<use xlink:href="#glyph-1-3-28eb449b" x="1198.48531" y="482.922426"/>
<use xlink:href="#glyph-1-4-28eb449b" x="1219.242638" y="482.922426"/>
</g>
<g fill="rgb(0%, 0%, 0%)" fill-opacity="1">
<use xlink:href="#glyph-1-3-28eb449b" x="1146.591975" y="211.227648"/>
<use xlink:href="#glyph-1-2-28eb449b" x="1167.349309" y="211.227648"/>
<use xlink:href="#glyph-1-3-28eb449b" x="1177.727971" y="211.227648"/>
<use xlink:href="#glyph-1-3-28eb449b" x="1198.485304" y="211.227648"/>
<use xlink:href="#glyph-1-3-28eb449b" x="1219.242638" y="211.227648"/>
</g>
<path fill="none" stroke-width="2" stroke-linecap="butt" stroke-linejoin="miter" stroke="rgb(0%, 44.705883%, 69.803923%)" stroke-opacity="1" stroke-miterlimit="2" d="M 489.04541 41.985352 L 489.394043 42.224121 L 489.741211 42.679688 L 490.088379 43.075195 L 490.437012 43.26123 L 490.78418 43.193848 L 491.132812 42.899414 L 491.47998 42.454102 L 491.828613 41.950195 L 492.80127 40.833984 L 493.775391 40.445801 L 494.748047 40.253906 L 495.722168 39.626953 L 497.668945 37.407715 L 499.615723 35.862305 L 501.5625 34.486816 L 503.509277 32.979492 L 505.456055 31.989258 L 507.402832 31.287598 L 510.061523 30.774902 L 512.720215 30.921387 L 515.378906 31.482422 L 518.037598 32.330566 L 520.193848 33.159668 L 522.348633 34.286133 L 524.504883 35.830078 L 526.661133 37.891113 L 528.826172 40.555664 L 530.991211 43.855957 L 533.15625 47.811035 L 535.321289 52.410645 L 536.638184 55.511719 L 537.955078 58.82959 L 539.271973 62.351074 L 540.588867 66.060059 L 543.222656 73.962891 L 545.856445 82.359375 L 548.01416 89.513672 L 550.17334 96.906738 L 552.331055 104.53418 L 554.490234 112.385742 L 556.649414 120.448242 L 558.810059 128.692383 L 560.970703 137.094727 L 563.129883 145.627441 L 573.670898 188.512207 L 582.312012 223.599609 L 583.627441 228.619629 L 584.944336 233.509277 L 586.259766 238.259766 L 587.57666 242.868164 L 590.208984 251.649902 L 592.841309 259.87793 L 597.155273 272.406738 L 601.470703 284.424316 L 603.634277 290.538574 L 605.797852 296.572266 L 607.961426 302.323242 L 610.123535 307.621582 L 611.44043 310.570312 L 612.758789 313.278809 L 614.075684 315.730957 L 615.392578 317.913574 L 616.709473 319.822266 L 618.026367 321.452637 L 619.343262 322.812012 L 620.660156 323.907715 L 622.819336 325.180664 L 624.978516 325.889648 L 627.137695 326.178223 L 629.296875 326.226562 L 631.45459 326.19873 L 633.61377 325.97168 L 635.771484 325.353516 L 637.929199 324.197754 L 639.247559 323.179688 L 640.565918 321.903809 L 641.882812 320.355469 L 643.201172 318.533203 L 644.518066 316.432617 L 645.836426 314.061035 L 647.154785 311.427246 L 648.47168 308.550293 L 650.632324 303.357422 L 652.794434 297.687012 L 654.955078 291.69873 L 657.115723 285.588867 L 662.381836 270.89502 L 667.646484 255.291504 L 669.805664 248.336426 L 671.963379 240.997559 L 674.121094 233.269043 L 676.280273 225.172852 L 680.603027 208.037109 L 684.925781 190.189453 L 690.194824 168.508301 L 695.463867 147.243164 L 699.783691 130.26123 L 704.103516 113.890137 L 706.734375 104.29541 L 709.366699 95.034668 L 711.999023 86.125488 L 714.631348 77.569336 L 716.787598 70.861816 L 718.945312 64.535156 L 721.101562 58.680176 L 723.259277 53.373047 L 725.424316 48.651855 L 727.587891 44.572266 L 729.75293 41.147461 L 731.917969 38.362793 L 734.551758 35.783203 L 737.185547 33.971191 L 739.819336 32.743652 L 742.453125 31.836914 L 744.597656 31.229004 L 746.743652 30.864258 L 748.888184 30.773438 L 751.03418 31.119141 L 752.99707 31.77832 L 754.961426 32.657227 L 756.925781 34.067871 L 758.888672 35.550293 L 760.853027 36.93457 L 762.817383 39.152344 L 764.781738 40.382812 L 766.744629 41.374512 L 767.145996 41.913574 L 767.547363 42.493652 L 767.94873 42.98584 L 768.350098 43.249512 L 768.751465 43.190918 L 769.152832 42.815918 L 769.552734 42.288574 L 769.954102 41.985352 " transform="matrix(2.666667, 0, 0, 2.666667, 0, 0)"/>
<path fill="none" stroke-width="2" stroke-linecap="butt" stroke-linejoin="miter" stroke="rgb(90.196079%, 62.352943%, 0%)" stroke-opacity="1" stroke-miterlimit="2" d="M 489.04541 75.186035 L 489.089355 75.19043 L 489.131836 75.205078 L 489.175781 75.227051 L 489.219727 75.256348 L 489.262207 75.291504 L 489.306152 75.333984 L 489.350098 75.379395 L 489.394043 75.430664 L 489.480469 75.540527 L 489.566895 75.65918 L 489.654785 75.780762 L 489.741211 75.902344 L 489.827637 76.020996 L 489.915527 76.132324 L 490.001953 76.234863 L 490.088379 76.327148 L 490.132324 76.366699 L 490.17627 76.404785 L 490.220215 76.438477 L 490.262695 76.469238 L 490.306641 76.495605 L 490.350586 76.519043 L 490.393066 76.536621 L 490.437012 76.552734 L 490.480957 76.562988 L 490.523438 76.570312 L 490.567383 76.574707 L 490.611328 76.573242 L 490.653809 76.568848 L 490.697754 76.561523 L 490.741699 76.549805 L 490.78418 76.533691 L 490.828125 76.516113 L 490.87207 76.494141 L 490.916016 76.469238 L 490.958496 76.439941 L 491.046387 76.375488 L 491.132812 76.299316 L 491.219238 76.21582 L 491.307129 76.123535 L 491.393555 76.025391 L 491.47998 75.924316 L 491.654297 75.711914 L 491.828613 75.498047 L 491.950195 75.354492 L 492.071777 75.218262 L 492.193359 75.09082 L 492.314941 74.976562 L 492.436523 74.874023 L 492.558105 74.784668 L 492.679688 74.709961 L 492.80127 74.649902 L 492.922852 74.604492 L 493.045898 74.572266 L 493.16748 74.551758 L 493.289062 74.542969 L 493.410645 74.544434 L 493.532227 74.554688 L 493.653809 74.57373 L 493.775391 74.597168 L 494.018555 74.654297 L 494.261719 74.71582 L 494.383301 74.742188 L 494.504883 74.765625 L 494.626465 74.784668 L 494.748047 74.796387 L 494.871094 74.802246 L 494.992676 74.799316 L 495.114258 74.789062 L 495.23584 74.768555 L 495.357422 74.742188 L 495.479004 74.707031 L 495.600586 74.663086 L 495.722168 74.611816 L 495.84375 74.554688 L 495.965332 74.490234 L 496.086914 74.419922 L 496.208496 74.34668 L 496.45166 74.187012 L 496.696289 74.018555 L 496.939453 73.850098 L 497.182617 73.686035 L 497.304199 73.609863 L 497.425781 73.536621 L 497.547363 73.466309 L 497.668945 73.401855 L 497.790527 73.343262 L 497.912109 73.287598 L 498.033691 73.239258 L 498.155273 73.195312 L 498.276855 73.155762 L 498.399902 73.12207 L 498.521484 73.094238 L 498.643066 73.069336 L 498.764648 73.048828 L 498.88623 73.032715 L 499.007812 73.019531 L 499.129395 73.009277 L 499.372559 72.996094 L 499.615723 72.98877 L 499.858887 72.98291 L 500.102051 72.975586 L 500.34668 72.963867 L 500.589844 72.946289 L 500.833008 72.921387 L 501.076172 72.88916 L 501.319336 72.851074 L 501.5625 72.807129 L 502.050293 72.710449 L 502.536621 72.618164 L 502.779785 72.578613 L 503.022949 72.544922 L 503.266113 72.52002 L 503.509277 72.503906 L 503.752441 72.498047 L 503.99707 72.500977 L 504.240234 72.51416 L 504.483398 72.533203 L 504.726562 72.561035 L 504.969727 72.593262 L 505.212891 72.631348 L 505.456055 72.670898 L 506.430176 72.84668 L 507.402832 73.023926 L 507.735352 73.088379 L 508.067871 73.155762 L 508.400391 73.227539 L 508.73291 73.306641 L 509.06543 73.391602 L 509.397949 73.483887 L 509.730469 73.582031 L 510.061523 73.686035 L 510.726562 73.907227 L 511.391602 74.134277 L 512.056641 74.356934 L 512.720215 74.570801 L 513.052734 74.67334 L 513.385254 74.772949 L 513.717773 74.868164 L 514.050293 74.961914 L 514.382812 75.049805 L 514.715332 75.134766 L 515.046387 75.215332 L 515.378906 75.290039 L 515.711426 75.357422 L 516.043945 75.418945 L 516.376465 75.47168 L 516.708984 75.515625 L 516.874512 75.533203 L 517.041504 75.547852 L 517.207031 75.55957 L 517.374023 75.568359 L 517.705078 75.578613 L 518.037598 75.577148 L 518.307129 75.569824 L 518.57666 75.555176 L 518.846191 75.534668 L 519.115723 75.509766 L 519.385254 75.480469 L 519.654785 75.445312 L 519.924316 75.405762 L 520.193848 75.363281 L 520.73291 75.269531 L 521.271973 75.164062 L 521.811035 75.04834 L 522.348633 74.925293 L 523.426758 74.664551 L 524.504883 74.393555 L 525.043945 74.258789 L 525.583008 74.126953 L 526.12207 73.998047 L 526.661133 73.875 L 526.930664 73.816406 L 527.20166 73.757812 L 527.472656 73.702148 L 527.743652 73.647949 L 528.28418 73.54541 L 528.826172 73.45166 L 529.366699 73.368164 L 529.908691 73.293457 L 530.179688 73.259766 L 530.450684 73.230469 L 530.720215 73.201172 L 530.991211 73.17627 L 531.262207 73.154297 L 531.533203 73.135254 L 531.802734 73.117676 L 532.07373 73.104492 L 532.344727 73.092773 L 532.615723 73.083984 L 532.885254 73.07959 L 533.15625 73.07666 L 533.427246 73.07666 L 533.698242 73.07959 L 533.969238 73.085449 L 534.23877 73.094238 L 534.509766 73.104492 L 534.780762 73.117676 L 535.051758 73.135254 L 535.321289 73.152832 L 535.650879 73.179199 L 535.980469 73.208496 L 536.310059 73.242188 L 536.638184 73.278809 L 536.967773 73.318359 L 537.297363 73.359375 L 537.625488 73.404785 L 537.955078 73.453125 L 538.614258 73.555664 L 539.271973 73.665527 L 539.931152 73.78125 L 540.588867 73.901367 L 541.905762 74.144531 L 543.222656 74.377441 L 543.552246 74.430176 L 543.880371 74.481445 L 544.209961 74.529785 L 544.539551 74.57666 L 544.867676 74.617676 L 545.197266 74.655762 L 545.526855 74.690918 L 545.856445 74.720215 L 546.395508 74.76123 L 546.93457 74.791992 L 547.475098 74.813965 L 548.01416 74.828613 L 548.554688 74.834473 L 549.09375 74.833008 L 549.632812 74.827148 L 550.17334 74.813965 L 550.712402 74.794922 L 551.25293 74.772949 L 551.791992 74.745117 L 552.331055 74.714355 L 552.871582 74.679199 L 553.410645 74.641113 L 553.949707 74.600098 L 554.490234 74.556152 L 555.569824 74.463867 L 556.649414 74.364258 L 557.730469 74.260254 L 558.810059 74.15332 L 560.970703 73.939453 L 563.129883 73.737305 L 563.789062 73.680176 L 564.448242 73.625977 L 565.107422 73.576172 L 565.765137 73.529297 L 566.424316 73.488281 L 567.083496 73.45166 L 567.741211 73.422363 L 568.400391 73.400391 L 569.05957 73.385742 L 569.71875 73.379883 L 570.046875 73.381348 L 570.376465 73.384277 L 570.706055 73.390137 L 571.035645 73.398926 L 571.365234 73.412109 L 571.694824 73.426758 L 572.024414 73.445801 L 572.352539 73.467773 L 572.682129 73.494141 L 573.011719 73.523438 L 573.341309 73.557129 L 573.670898 73.595215 L 574.211426 73.666992 L 574.750488 73.746094 L 575.291016 73.83252 L 575.831543 73.924805 L 576.911133 74.119629 L 577.990723 74.320312 L 578.53125 74.418457 L 579.071777 74.513672 L 579.61084 74.607422 L 580.151367 74.695312 L 580.691895 74.777344 L 581.230957 74.852051 L 581.771484 74.920898 L 582.312012 74.980957 L 582.640137 75.013184 L 582.969727 75.041016 L 583.297852 75.067383 L 583.627441 75.087891 L 583.957031 75.106934 L 584.285156 75.120117 L 584.614746 75.130371 L 584.944336 75.13623 L 585.272461 75.13916 L 585.602051 75.13623 L 585.930176 75.130371 L 586.259766 75.120117 L 586.589355 75.105469 L 586.91748 75.086426 L 587.24707 75.062988 L 587.57666 75.036621 L 587.904785 75.004395 L 588.234375 74.969238 L 588.5625 74.931152 L 588.89209 74.887207 L 589.22168 74.840332 L 589.549805 74.790527 L 589.879395 74.736328 L 590.208984 74.679199 L 590.866699 74.554688 L 591.524414 74.418457 L 592.182129 74.271973 L 592.841309 74.116699 L 593.919434 73.851562 L 594.997559 73.580566 L 595.538086 73.447266 L 596.077148 73.316895 L 596.616211 73.192383 L 597.155273 73.07373 L 597.424805 73.018066 L 597.695801 72.965332 L 597.965332 72.915527 L 598.234863 72.868652 L 598.504395 72.824707 L 598.773926 72.785156 L 599.043457 72.75 L 599.312988 72.717773 L 599.58252 72.691406 L 599.852051 72.669434 L 600.123047 72.65332 L 600.392578 72.643066 L 600.662109 72.638672 L 600.931641 72.641602 L 601.201172 72.650391 L 601.470703 72.666504 L 601.741699 72.689941 L 602.01123 72.720703 L 602.282227 72.757324 L 602.553223 72.799805 L 602.822754 72.849609 L 603.09375 72.903809 L 603.363281 72.962402 L 603.634277 73.025391 L 603.905273 73.092773 L 604.174805 73.164551 L 604.445801 73.237793 L 604.715332 73.31543 L 605.257324 73.476562 L 605.797852 73.646484 L 606.878906 73.996582 L 607.961426 74.34668 L 608.501953 74.515137 L 609.04248 74.677734 L 609.583008 74.833008 L 610.123535 74.978027 L 610.453125 75.061523 L 610.782715 75.13916 L 611.112305 75.213867 L 611.44043 75.28125 L 611.77002 75.345703 L 612.099609 75.402832 L 612.429199 75.455566 L 612.758789 75.500977 L 613.086914 75.540527 L 613.416504 75.574219 L 613.746094 75.602051 L 614.075684 75.622559 L 614.403809 75.637207 L 614.733398 75.645996 L 615.062988 75.645996 L 615.392578 75.641602 L 615.722168 75.628418 L 616.050293 75.609375 L 616.379883 75.584473 L 616.709473 75.552246 L 617.039062 75.51416 L 617.367188 75.46875 L 617.696777 75.418945 L 618.026367 75.361816 L 618.355957 75.298828 L 618.685547 75.22998 L 619.013672 75.155273 L 619.343262 75.076172 L 619.672852 74.991211 L 620.002441 74.901855 L 620.330566 74.808105 L 620.660156 74.711426 L 621.200684 74.542969 L 621.739746 74.367188 L 622.280273 74.184082 L 622.819336 73.996582 L 623.898926 73.615723 L 624.978516 73.245117 L 625.248047 73.157227 L 625.519043 73.070801 L 625.788574 72.98584 L 626.058105 72.905273 L 626.327637 72.827637 L 626.598633 72.754395 L 626.868164 72.684082 L 627.137695 72.619629 L 627.407227 72.561035 L 627.678223 72.506836 L 627.947754 72.458496 L 628.217285 72.416016 L 628.486816 72.380859 L 628.757812 72.354492 L 629.027344 72.333984 L 629.296875 72.32373 L 629.566406 72.320801 L 629.835938 72.328125 L 630.106934 72.342773 L 630.376465 72.366211 L 630.645996 72.396973 L 630.915527 72.436523 L 631.185059 72.480469 L 631.45459 72.531738 L 631.725586 72.588867 L 631.995117 72.651855 L 632.264648 72.717773 L 632.53418 72.789551 L 632.803711 72.865723 L 633.073242 72.944824 L 633.344238 73.026855 L 633.61377 73.111816 L 634.152832 73.289062 L 634.691895 73.473633 L 635.232422 73.662598 L 635.771484 73.853027 L 636.310547 74.041992 L 636.851074 74.228027 L 637.390137 74.409668 L 637.929199 74.583984 L 638.258789 74.686523 L 638.588379 74.784668 L 638.917969 74.879883 L 639.247559 74.970703 L 639.577148 75.055664 L 639.906738 75.13623 L 640.236328 75.212402 L 640.565918 75.282715 L 640.894043 75.347168 L 641.223633 75.405762 L 641.553223 75.457031 L 641.882812 75.503906 L 642.212402 75.543457 L 642.541992 75.577148 L 642.871582 75.60498 L 643.201172 75.625488 L 643.530762 75.638672 L 643.860352 75.645996 L 644.189941 75.645996 L 644.518066 75.640137 L 644.847656 75.626953 L 645.177246 75.60791 L 645.506836 75.581543 L 645.836426 75.549316 L 646.166016 75.51123 L 646.495605 75.46582 L 646.825195 75.416016 L 647.154785 75.358887 L 647.484375 75.297363 L 647.813965 75.22998 L 648.143555 75.156738 L 648.47168 75.079102 L 649.012207 74.942871 L 649.552734 74.794922 L 650.093262 74.638184 L 650.632324 74.474121 L 651.713379 74.128418 L 652.794434 73.776855 L 653.333496 73.604004 L 653.874023 73.437012 L 654.414551 73.277344 L 654.955078 73.129395 L 655.224609 73.060547 L 655.494141 72.994629 L 655.765137 72.933105 L 656.034668 72.877441 L 656.305664 72.824707 L 656.575195 72.779297 L 656.844727 72.738281 L 657.115723 72.70459 L 657.443848 72.672363 L 657.773438 72.651855 L 658.103027 72.640137 L 658.431152 72.640137 L 658.760742 72.648926 L 659.090332 72.666504 L 659.418457 72.691406 L 659.748047 72.725098 L 660.077637 72.764648 L 660.405762 72.811523 L 660.735352 72.862793 L 661.064941 72.921387 L 661.394531 72.98291 L 661.722656 73.048828 L 662.052246 73.119141 L 662.381836 73.190918 L 663.039551 73.344727 L 663.697266 73.505859 L 664.356445 73.669922 L 665.01416 73.835449 L 665.671875 73.999512 L 666.331055 74.157715 L 666.98877 74.310059 L 667.646484 74.455078 L 668.187012 74.564941 L 668.726074 74.66748 L 669.265137 74.759766 L 669.805664 74.844727 L 670.344727 74.919434 L 670.883789 74.982422 L 671.154785 75.010254 L 671.424316 75.036621 L 671.693848 75.058594 L 671.963379 75.079102 L 672.23291 75.095215 L 672.502441 75.109863 L 672.773438 75.121582 L 673.042969 75.128906 L 673.3125 75.134766 L 673.582031 75.137695 L 673.851562 75.137695 L 674.121094 75.13623 L 674.661621 75.123047 L 675.200684 75.098145 L 675.739746 75.064453 L 676.280273 75.020508 L 676.820801 74.966309 L 677.359863 74.904785 L 677.900391 74.834473 L 678.440918 74.756836 L 678.981445 74.67334 L 679.521973 74.583984 L 680.0625 74.490234 L 680.603027 74.393555 L 681.682617 74.194336 L 682.763672 73.996582 L 683.304199 73.901367 L 683.844727 73.810547 L 684.385254 73.725586 L 684.925781 73.647949 L 685.253906 73.605469 L 685.583496 73.565918 L 685.913086 73.530762 L 686.242676 73.5 L 686.572266 73.473633 L 686.900391 73.450195 L 687.22998 73.431152 L 687.55957 73.415039 L 688.21875 73.391602 L 688.876465 73.381348 L 689.535645 73.381348 L 690.194824 73.390137 L 690.852539 73.407715 L 691.511719 73.434082 L 692.170898 73.464844 L 692.828613 73.50293 L 693.487793 73.546875 L 694.146973 73.595215 L 694.804688 73.646484 L 695.463867 73.702148 L 697.623047 73.899902 L 699.783691 74.112305 L 701.942871 74.324707 L 704.103516 74.522461 L 704.76123 74.57666 L 705.418945 74.62793 L 706.07666 74.67627 L 706.734375 74.717285 L 707.393555 74.755371 L 708.05127 74.786133 L 708.708984 74.80957 L 709.366699 74.827148 L 710.024414 74.834473 L 710.683594 74.833008 L 711.341309 74.819824 L 711.999023 74.794922 L 712.327148 74.778809 L 712.656738 74.756836 L 712.986328 74.733398 L 713.314453 74.705566 L 713.644043 74.67334 L 713.972168 74.636719 L 714.301758 74.597168 L 714.631348 74.553223 L 715.17041 74.474121 L 715.709473 74.387695 L 716.248535 74.296875 L 716.787598 74.200195 L 717.867188 74.002441 L 718.945312 73.803223 L 719.484375 73.708008 L 720.023438 73.614258 L 720.5625 73.526367 L 721.101562 73.444336 L 721.64209 73.368164 L 722.181152 73.299316 L 722.720215 73.239258 L 723.259277 73.186523 L 723.80127 73.144043 L 724.341797 73.111816 L 724.612793 73.100098 L 724.882324 73.089844 L 725.15332 73.08252 L 725.424316 73.078125 L 725.693848 73.07666 L 725.964844 73.07666 L 726.23584 73.081055 L 726.506836 73.088379 L 726.776367 73.097168 L 727.047363 73.110352 L 727.318359 73.125 L 727.587891 73.142578 L 727.858887 73.164551 L 728.129883 73.187988 L 728.400879 73.214355 L 728.67041 73.243652 L 729.212402 73.30957 L 729.75293 73.385742 L 730.293457 73.472168 L 730.835449 73.567383 L 731.375977 73.671387 L 731.917969 73.782715 L 732.575684 73.929199 L 733.234863 74.083008 L 733.892578 74.242676 L 734.551758 74.408203 L 735.209473 74.57373 L 735.868652 74.737793 L 736.526367 74.897461 L 737.185547 75.046875 L 737.513672 75.118652 L 737.843262 75.1875 L 738.172852 75.251953 L 738.502441 75.312012 L 738.830566 75.367676 L 739.160156 75.418945 L 739.489746 75.464355 L 739.819336 75.502441 L 740.147461 75.534668 L 740.477051 75.558105 L 740.806641 75.574219 L 741.13623 75.580078 L 741.300293 75.578613 L 741.464355 75.575684 L 741.629883 75.568359 L 741.793945 75.55957 L 742.123535 75.533203 L 742.453125 75.495117 L 742.721191 75.457031 L 742.989258 75.413086 L 743.257324 75.364746 L 743.525391 75.310547 L 743.793457 75.251953 L 744.061523 75.188965 L 744.32959 75.124512 L 744.597656 75.055664 L 745.133789 74.910645 L 745.669922 74.756836 L 746.206055 74.594238 L 746.743652 74.422852 L 748.888184 73.702148 L 749.15625 73.617188 L 749.424316 73.535156 L 749.692383 73.45752 L 749.960449 73.384277 L 750.228516 73.31543 L 750.496582 73.250977 L 750.764648 73.190918 L 751.03418 73.133789 L 752.015625 72.947754 L 752.99707 72.769043 L 753.487793 72.681152 L 753.97998 72.600586 L 754.224609 72.566895 L 754.470703 72.537598 L 754.715332 72.51709 L 754.961426 72.502441 L 755.20752 72.498047 L 755.452148 72.502441 L 755.698242 72.51709 L 755.942871 72.540527 L 756.188965 72.572754 L 756.435059 72.612305 L 756.679688 72.657715 L 756.925781 72.706055 L 757.17041 72.755859 L 757.416504 72.802734 L 757.661133 72.848145 L 757.907227 72.887695 L 758.15332 72.919922 L 758.397949 72.944824 L 758.644043 72.963867 L 758.888672 72.975586 L 759.380859 72.98877 L 759.871582 73.009277 L 759.994629 73.019531 L 760.116211 73.032715 L 760.239258 73.050293 L 760.362305 73.070801 L 760.485352 73.095703 L 760.608398 73.125 L 760.72998 73.158691 L 760.853027 73.198242 L 760.976074 73.242188 L 761.099121 73.293457 L 761.222168 73.347656 L 761.34375 73.40918 L 761.466797 73.475098 L 761.589844 73.54541 L 761.712891 73.620117 L 761.835938 73.697754 L 762.080566 73.863281 L 762.32666 74.033203 L 762.571289 74.203125 L 762.817383 74.362793 L 762.94043 74.436035 L 763.063477 74.504883 L 763.185059 74.569336 L 763.308105 74.625 L 763.431152 74.674805 L 763.554199 74.717285 L 763.675781 74.750977 L 763.798828 74.775879 L 763.921875 74.791992 L 764.044922 74.800781 L 764.167969 74.800781 L 764.289551 74.793457 L 764.412598 74.778809 L 764.535645 74.758301 L 764.658691 74.733398 L 764.781738 74.705566 L 765.026367 74.644043 L 765.272461 74.586914 L 765.395508 74.564941 L 765.51709 74.550293 L 765.640137 74.542969 L 765.763184 74.544434 L 765.88623 74.559082 L 766.009277 74.583984 L 766.130859 74.623535 L 766.253906 74.67627 L 766.376953 74.743652 L 766.5 74.825684 L 766.623047 74.922363 L 766.744629 75.032227 L 766.845703 75.130371 L 766.945312 75.237305 L 767.046387 75.350098 L 767.145996 75.467285 L 767.34668 75.713379 L 767.547363 75.956543 L 767.648438 76.07373 L 767.748047 76.182129 L 767.847656 76.281738 L 767.94873 76.371094 L 767.998535 76.410645 L 768.04834 76.445801 L 768.099609 76.476562 L 768.149414 76.504395 L 768.199219 76.527832 L 768.249023 76.546875 L 768.300293 76.560059 L 768.350098 76.570312 L 768.399902 76.574707 L 768.449707 76.573242 L 768.500977 76.567383 L 768.550781 76.555664 L 768.600586 76.539551 L 768.650391 76.517578 L 768.700195 76.491211 L 768.751465 76.458984 L 768.80127 76.422363 L 768.851074 76.381348 L 768.900879 76.335938 L 768.952148 76.284668 L 769.001953 76.230469 L 769.051758 76.17334 L 769.101562 76.111816 L 769.152832 76.047363 L 769.252441 75.911133 L 769.353516 75.770508 L 769.453125 75.629883 L 769.552734 75.496582 L 769.604004 75.433594 L 769.653809 75.376465 L 769.703613 75.32373 L 769.753418 75.276855 L 769.804688 75.23877 L 769.854492 75.210938 L 769.904297 75.191895 L 769.954102 75.186035 " transform="matrix(2.666667, 0, 0, 2.666667, 0, 0)"/>
<path fill-rule="nonzero" fill="rgb(100%, 100%, 100%)" fill-opacity="1" stroke-width="1" stroke-linecap="butt" stroke-linejoin="miter" stroke="rgb(0%, 0%, 0%)" stroke-opacity="1" stroke-miterlimit="2" d="M 175.000488 334.999512 L 282 334.999512 L 282 256.999512 L 175.000488 256.999512 Z M 175.000488 334.999512 " transform="matrix(2.666667, 0, 0, 2.666667, 0, 0)"/>
<path fill-rule="nonzero" fill="rgb(100%, 100%, 100%)" fill-opacity="1" stroke-width="1" stroke-linecap="butt" stroke-linejoin="miter" stroke="rgb(0%, 0%, 0%)" stroke-opacity="1" stroke-miterlimit="2" d="M 672 334.999512 L 778.000488 334.999512 L 778.000488 279.999023 L 672 279.999023 Z M 672 334.999512 " transform="matrix(2.666667, 0, 0, 2.666667, 0, 0)"/>
<path fill="none" stroke-width="1" stroke-linecap="butt" stroke-linejoin="miter" stroke="rgb(0%, 0%, 0%)" stroke-opacity="1" stroke-miterlimit="1.154701" d="M 88.045898 341.500488 L 88.045898 346.5 " transform="matrix(2.666667, 0, 0, 2.666667, 0, 0)"/>
<path fill="none" stroke-width="1" stroke-linecap="butt" stroke-linejoin="miter" stroke="rgb(0%, 0%, 0%)" stroke-opacity="1" stroke-miterlimit="1.154701" d="M 158.273438 341.500488 L 158.273438 346.5 " transform="matrix(2.666667, 0, 0, 2.666667, 0, 0)"/>
<path fill="none" stroke-width="1" stroke-linecap="butt" stroke-linejoin="miter" stroke="rgb(0%, 0%, 0%)" stroke-opacity="1" stroke-miterlimit="1.154701" d="M 228.499512 341.500488 L 228.499512 346.5 " transform="matrix(2.666667, 0, 0, 2.666667, 0, 0)"/>
<path fill="none" stroke-width="1" stroke-linecap="butt" stroke-linejoin="miter" stroke="rgb(0%, 0%, 0%)" stroke-opacity="1" stroke-miterlimit="1.154701" d="M 298.727051 341.500488 L 298.727051 346.5 " transform="matrix(2.666667, 0, 0, 2.666667, 0, 0)"/>
<path fill="none" stroke-width="1" stroke-linecap="butt" stroke-linejoin="miter" stroke="rgb(0%, 0%, 0%)" stroke-opacity="1" stroke-miterlimit="1.154701" d="M 368.95459 341.500488 L 368.95459 346.5 " transform="matrix(2.666667, 0, 0, 2.666667, 0, 0)"/>
<path fill="none" stroke-width="1" stroke-linecap="butt" stroke-linejoin="miter" stroke="rgb(0%, 0%, 0%)" stroke-opacity="1" stroke-miterlimit="1.154701" d="M 73.5 277.567383 L 68.500488 277.567383 " transform="matrix(2.666667, 0, 0, 2.666667, 0, 0)"/>
<path fill="none" stroke-width="1" stroke-linecap="butt" stroke-linejoin="miter" stroke="rgb(0%, 0%, 0%)" stroke-opacity="1" stroke-miterlimit="1.154701" d="M 73.5 178.498535 L 68.500488 178.498535 " transform="matrix(2.666667, 0, 0, 2.666667, 0, 0)"/>
<path fill="none" stroke-width="1" stroke-linecap="butt" stroke-linejoin="miter" stroke="rgb(0%, 0%, 0%)" stroke-opacity="1" stroke-miterlimit="1.154701" d="M 73.5 79.431152 L 68.500488 79.431152 " transform="matrix(2.666667, 0, 0, 2.666667, 0, 0)"/>
<path fill="none" stroke-width="2" stroke-linecap="butt" stroke-linejoin="miter" stroke="rgb(0%, 44.705883%, 69.803923%)" stroke-opacity="1" stroke-miterlimit="2" d="M 181.378418 273 L 201.37793 273 " transform="matrix(2.666667, 0, 0, 2.666667, 0, 0)"/>
<path fill="none" stroke-width="2" stroke-linecap="butt" stroke-linejoin="miter" stroke="rgb(90.196079%, 62.352943%, 0%)" stroke-opacity="1" stroke-miterlimit="2" d="M 181.378418 295.999512 L 201.37793 295.999512 " transform="matrix(2.666667, 0, 0, 2.666667, 0, 0)"/>
<path fill="none" stroke-width="2" stroke-linecap="butt" stroke-linejoin="miter" stroke="rgb(50.196081%, 50.196081%, 50.196081%)" stroke-opacity="1" stroke-dasharray="6 6" stroke-miterlimit="2" d="M 181.378418 319.000488 L 201.37793 319.000488 " transform="matrix(2.666667, 0, 0, 2.666667, 0, 0)"/>
<g fill="rgb(0%, 0%, 0%)" fill-opacity="1">
<use xlink:href="#glyph-1-7-28eb449b" x="550.341327" y="741.608008"/>
<use xlink:href="#glyph-1-8-28eb449b" x="577.295992" y="741.608008"/>
<use xlink:href="#glyph-1-9-28eb449b" x="598.053326" y="741.608008"/>
<use xlink:href="#glyph-1-9-28eb449b" x="606.341326" y="741.608008"/>
<use xlink:href="#glyph-1-8-28eb449b" x="614.629325" y="741.608008"/>
<use xlink:href="#glyph-1-10-28eb449b" x="635.386659" y="741.608008"/>
</g>
<g fill="rgb(0%, 0%, 0%)" fill-opacity="1">
<use xlink:href="#glyph-18-0-28eb449b" x="654.05332" y="741.608008"/>
</g>
<g fill="rgb(0%, 0%, 0%)" fill-opacity="1">
<use xlink:href="#glyph-1-11-28eb449b" x="674.810654" y="741.608008"/>
<use xlink:href="#glyph-1-12-28eb449b" x="685.189316" y="741.608008"/>
<use xlink:href="#glyph-1-8-28eb449b" x="693.47732" y="741.608008"/>
<use xlink:href="#glyph-1-13-28eb449b" x="714.234654" y="741.608008"/>
</g>
<g fill="rgb(0%, 0%, 0%)" fill-opacity="1">
<use xlink:href="#glyph-1-14-28eb449b" x="550.341347" y="802.94134"/>
<use xlink:href="#glyph-1-15-28eb449b" x="579.38668" y="802.94134"/>
<use xlink:href="#glyph-1-9-28eb449b" x="600.144014" y="802.94134"/>
<use xlink:href="#glyph-1-16-28eb449b" x="608.432014" y="802.94134"/>
<use xlink:href="#glyph-1-17-28eb449b" x="629.189348" y="802.94134"/>
<use xlink:href="#glyph-1-18-28eb449b" x="641.621344" y="802.94134"/>
<use xlink:href="#glyph-1-12-28eb449b" x="660.28801" y="802.94134"/>
<use xlink:href="#glyph-1-13-28eb449b" x="668.576015" y="802.94134"/>
</g>
<g fill="rgb(0%, 0%, 0%)" fill-opacity="1">
<use xlink:href="#glyph-1-19-28eb449b" x="550.341342" y="864.274672"/>
<use xlink:href="#glyph-1-12-28eb449b" x="577.296008" y="864.274672"/>
<use xlink:href="#glyph-1-20-28eb449b" x="585.584007" y="864.274672"/>
<use xlink:href="#glyph-1-17-28eb449b" x="598.016008" y="864.274672"/>
<use xlink:href="#glyph-1-16-28eb449b" x="610.44801" y="864.274672"/>
<use xlink:href="#glyph-1-21-28eb449b" x="631.205344" y="864.274672"/>
</g>
<path fill="none" stroke-width="1" stroke-linecap="butt" stroke-linejoin="miter" stroke="rgb(0%, 0%, 0%)" stroke-opacity="1" stroke-miterlimit="1.154701" d="M 489.04541 341.500488 L 489.04541 346.5 " transform="matrix(2.666667, 0, 0, 2.666667, 0, 0)"/>
<path fill="none" stroke-width="1" stroke-linecap="butt" stroke-linejoin="miter" stroke="rgb(0%, 0%, 0%)" stroke-opacity="1" stroke-miterlimit="1.154701" d="M 559.272949 341.500488 L 559.272949 346.5 " transform="matrix(2.666667, 0, 0, 2.666667, 0, 0)"/>
<path fill="none" stroke-width="1" stroke-linecap="butt" stroke-linejoin="miter" stroke="rgb(0%, 0%, 0%)" stroke-opacity="1" stroke-miterlimit="1.154701" d="M 629.500488 341.500488 L 629.500488 346.5 " transform="matrix(2.666667, 0, 0, 2.666667, 0, 0)"/>
<path fill="none" stroke-width="1" stroke-linecap="butt" stroke-linejoin="miter" stroke="rgb(0%, 0%, 0%)" stroke-opacity="1" stroke-miterlimit="1.154701" d="M 699.726562 341.500488 L 699.726562 346.5 " transform="matrix(2.666667, 0, 0, 2.666667, 0, 0)"/>
<path fill="none" stroke-width="1" stroke-linecap="butt" stroke-linejoin="miter" stroke="rgb(0%, 0%, 0%)" stroke-opacity="1" stroke-miterlimit="1.154701" d="M 769.954102 341.500488 L 769.954102 346.5 " transform="matrix(2.666667, 0, 0, 2.666667, 0, 0)"/>
<path fill="none" stroke-width="1" stroke-linecap="butt" stroke-linejoin="miter" stroke="rgb(0%, 0%, 0%)" stroke-opacity="1" stroke-miterlimit="1.154701" d="M 474.499512 277.87793 L 469.5 277.87793 " transform="matrix(2.666667, 0, 0, 2.666667, 0, 0)"/>
<path fill="none" stroke-width="1" stroke-linecap="butt" stroke-linejoin="miter" stroke="rgb(0%, 0%, 0%)" stroke-opacity="1" stroke-miterlimit="1.154701" d="M 474.499512 175.992188 L 469.5 175.992188 " transform="matrix(2.666667, 0, 0, 2.666667, 0, 0)"/>
<path fill="none" stroke-width="1" stroke-linecap="butt" stroke-linejoin="miter" stroke="rgb(0%, 0%, 0%)" stroke-opacity="1" stroke-miterlimit="1.154701" d="M 474.499512 74.10791 L 469.5 74.10791 " transform="matrix(2.666667, 0, 0, 2.666667, 0, 0)"/>
<path fill="none" stroke-width="2" stroke-linecap="butt" stroke-linejoin="miter" stroke="rgb(0%, 44.705883%, 69.803923%)" stroke-opacity="1" stroke-miterlimit="2" d="M 677.878418 295.999512 L 697.87793 295.999512 " transform="matrix(2.666667, 0, 0, 2.666667, 0, 0)"/>
<path fill="none" stroke-width="2" stroke-linecap="butt" stroke-linejoin="miter" stroke="rgb(90.196079%, 62.352943%, 0%)" stroke-opacity="1" stroke-miterlimit="2" d="M 677.878418 319.000488 L 697.87793 319.000488 " transform="matrix(2.666667, 0, 0, 2.666667, 0, 0)"/>
<g fill="rgb(0%, 0%, 0%)" fill-opacity="1">
<use xlink:href="#glyph-1-7-28eb449b" x="1874.341297" y="802.94134"/>
<use xlink:href="#glyph-1-8-28eb449b" x="1901.295963" y="802.94134"/>
<use xlink:href="#glyph-1-9-28eb449b" x="1922.053297" y="802.94134"/>
<use xlink:href="#glyph-1-9-28eb449b" x="1930.341296" y="802.94134"/>
<use xlink:href="#glyph-1-8-28eb449b" x="1938.629295" y="802.94134"/>
<use xlink:href="#glyph-1-10-28eb449b" x="1959.386629" y="802.94134"/>
<use xlink:href="#glyph-1-15-28eb449b" x="1978.05329" y="802.94134"/>
<use xlink:href="#glyph-1-11-28eb449b" x="1998.810624" y="802.94134"/>
<use xlink:href="#glyph-1-12-28eb449b" x="2009.189286" y="802.94134"/>
<use xlink:href="#glyph-1-8-28eb449b" x="2017.477291" y="802.94134"/>
<use xlink:href="#glyph-1-13-28eb449b" x="2038.234624" y="802.94134"/>
</g>
<g fill="rgb(0%, 0%, 0%)" fill-opacity="1">
<use xlink:href="#glyph-1-14-28eb449b" x="1874.341195" y="864.274672"/>
<use xlink:href="#glyph-1-15-28eb449b" x="1903.386529" y="864.274672"/>
<use xlink:href="#glyph-1-9-28eb449b" x="1924.143863" y="864.274672"/>
<use xlink:href="#glyph-1-16-28eb449b" x="1932.431862" y="864.274672"/>
<use xlink:href="#glyph-1-17-28eb449b" x="1953.189196" y="864.274672"/>
<use xlink:href="#glyph-1-18-28eb449b" x="1965.621192" y="864.274672"/>
<use xlink:href="#glyph-1-12-28eb449b" x="1984.287858" y="864.274672"/>
<use xlink:href="#glyph-1-13-28eb449b" x="1992.575863" y="864.274672"/>
</g>
<path fill="none" stroke-width="1" stroke-linecap="butt" stroke-linejoin="miter" stroke="rgb(0%, 0%, 0%)" stroke-opacity="1" stroke-miterlimit="1.154701" d="M 73.5 340.999512 L 383.500488 340.999512 " transform="matrix(2.666667, 0, 0, 2.666667, 0, 0)"/>
<path fill="none" stroke-width="1" stroke-linecap="butt" stroke-linejoin="miter" stroke="rgb(0%, 0%, 0%)" stroke-opacity="1" stroke-miterlimit="1.154701" d="M 73.999512 341.500488 L 73.999512 15.499512 " transform="matrix(2.666667, 0, 0, 2.666667, 0, 0)"/>
<path fill="none" stroke-width="1" stroke-linecap="butt" stroke-linejoin="miter" stroke="rgb(0%, 0%, 0%)" stroke-opacity="1" stroke-miterlimit="1.154701" d="M 73.5 16.000488 L 383.500488 16.000488 " transform="matrix(2.666667, 0, 0, 2.666667, 0, 0)"/>
<path fill="none" stroke-width="1" stroke-linecap="butt" stroke-linejoin="miter" stroke="rgb(0%, 0%, 0%)" stroke-opacity="1" stroke-miterlimit="1.154701" d="M 382.999512 341.500488 L 382.999512 15.499512 " transform="matrix(2.666667, 0, 0, 2.666667, 0, 0)"/>
<path fill="none" stroke-width="1" stroke-linecap="butt" stroke-linejoin="miter" stroke="rgb(0%, 0%, 0%)" stroke-opacity="1" stroke-miterlimit="1.154701" d="M 474.499512 340.999512 L 784.5 340.999512 " transform="matrix(2.666667, 0, 0, 2.666667, 0, 0)"/>
<path fill="none" stroke-width="1" stroke-linecap="butt" stroke-linejoin="miter" stroke="rgb(0%, 0%, 0%)" stroke-opacity="1" stroke-miterlimit="1.154701" d="M 475.000488 341.500488 L 475.000488 15.499512 " transform="matrix(2.666667, 0, 0, 2.666667, 0, 0)"/>
<path fill="none" stroke-width="1" stroke-linecap="butt" stroke-linejoin="miter" stroke="rgb(0%, 0%, 0%)" stroke-opacity="1" stroke-miterlimit="1.154701" d="M 474.499512 16.000488 L 784.5 16.000488 " transform="matrix(2.666667, 0, 0, 2.666667, 0, 0)"/>
<path fill="none" stroke-width="1" stroke-linecap="butt" stroke-linejoin="miter" stroke="rgb(0%, 0%, 0%)" stroke-opacity="1" stroke-miterlimit="1.154701" d="M 784.000488 341.500488 L 784.000488 15.499512 " transform="matrix(2.666667, 0, 0, 2.666667, 0, 0)"/>
</svg>
