<?xml version="1.0" encoding="UTF-8"?>
<svg xmlns="http://www.w3.org/2000/svg" xmlns:xlink="http://www.w3.org/1999/xlink" width="1600" height="1200" viewBox="0 0 1600 1200">
<defs>
<g>
<g id="glyph-0-0-67d08b06">
<path d="M 15.796875 0 C 15.796875 0 12.28125 0 12.28125 0 C 12.28125 0 8.921875 -7.46875 8.921875 -7.46875 C 8.921875 -7.46875 2.421875 0 2.421875 0 C 2.421875 0 -1.234375 0 -1.234375 0 C -1.234375 0 7.6875 -9.96875 7.6875 -9.96875 C 7.6875 -9.96875 3.28125 -19.5625 3.28125 -19.5625 C 3.28125 -19.5625 6.75 -19.5625 6.75 -19.5625 C 6.75 -19.5625 10.046875 -12.390625 10.046875 -12.390625 C 10.046875 -12.390625 16.28125 -19.5625 16.28125 -19.5625 C 16.28125 -19.5625 19.890625 -19.5625 19.890625 -19.5625 C 19.890625 -19.5625 11.203125 -9.96875 11.203125 -9.96875 C 11.203125 -9.96875 15.796875 0 15.796875 0 Z M 15.796875 0 "/>
</g>
<g id="glyph-1-0-67d08b06">
<path d="M 18.921875 -12.734375 C 18.921875 -4.03125 15.859375 0.5625 10.265625 0.5625 C 4.59375 0.5625 1.609375 -4.03125 1.609375 -12.953125 C 1.609375 -21.84375 4.546875 -26.46875 10.265625 -26.46875 C 16.015625 -26.46875 18.921875 -21.90625 18.921875 -12.734375 Z M 15.5625 -13.03125 C 15.5625 -20.125 13.8125 -23.546875 10.265625 -23.546875 C 6.71875 -23.546875 4.96875 -20.15625 4.96875 -12.921875 C 4.96875 -5.671875 6.71875 -2.171875 10.1875 -2.171875 C 13.84375 -2.171875 15.5625 -5.53125 15.5625 -13.03125 Z M 15.5625 -13.03125 "/>
</g>
<g id="glyph-1-1-67d08b06">
<path d="M 7.125 0 C 7.125 0 3.25 0 3.25 0 C 3.25 0 3.25 -3.875 3.25 -3.875 C 3.25 -3.875 7.125 -3.875 7.125 -3.875 C 7.125 -3.875 7.125 0 7.125 0 Z M 7.125 0 "/>
</g>
<g id="glyph-1-2-67d08b06">
<path d="M 19.15625 -8.765625 C 19.15625 -3.171875 15.421875 0.5625 10.078125 0.5625 C 5.375 0.5625 2.390625 -1.53125 1.3125 -6.796875 C 1.3125 -6.796875 4.59375 -6.796875 4.59375 -6.796875 C 5.375 -3.8125 7.125 -2.359375 10 -2.359375 C 13.59375 -2.359375 15.796875 -4.515625 15.796875 -8.328125 C 15.796875 -12.25 13.546875 -14.515625 10 -14.515625 C 7.953125 -14.515625 6.6875 -13.890625 5.15625 -12.0625 C 5.15625 -12.0625 2.125 -12.0625 2.125 -12.0625 C 2.125 -12.0625 4.109375 -25.90625 4.109375 -25.90625 C 4.109375 -25.90625 17.765625 -25.90625 17.765625 -25.90625 C 17.765625 -25.90625 17.765625 -22.65625 17.765625 -22.65625 C 17.765625 -22.65625 6.75 -22.65625 6.75 -22.65625 C 6.75 -22.65625 5.71875 -15.828125 5.71875 -15.828125 C 7.234375 -16.953125 8.734375 -17.4375 10.59375 -17.4375 C 15.671875 -17.4375 19.15625 -14 19.15625 -8.765625 Z M 19.15625 -8.765625 "/>
</g>
<g id="glyph-1-3-67d08b06">
<path d="M 12.953125 0 C 12.953125 0 9.671875 0 9.671875 0 C 9.671875 0 9.671875 -18.84375 9.671875 -18.84375 C 9.671875 -18.84375 3.8125 -18.84375 3.8125 -18.84375 C 3.8125 -18.84375 3.8125 -21.203125 3.8125 -21.203125 C 8.890625 -21.84375 9.625 -22.390625 10.78125 -26.46875 C 10.78125 -26.46875 12.953125 -26.46875 12.953125 -26.46875 C 12.953125 -26.46875 12.953125 0 12.953125 0 Z M 12.953125 0 "/>
</g>
<g id="glyph-1-4-67d08b06">
<path d="M 19.265625 -8.0625 C 19.265625 -8.0625 2.53125 -8.0625 2.53125 -8.0625 C 2.53125 -8.0625 2.53125 -10.59375 2.53125 -10.59375 C 2.53125 -10.59375 19.265625 -10.59375 19.265625 -10.59375 C 19.265625 -10.59375 19.265625 -8.0625 19.265625 -8.0625 Z M 19.265625 -8.0625 "/>
</g>
<g id="glyph-2-0-67d08b06">
<path d="M 7.125 0 C 7.125 0 3.25 0 3.25 0 C 3.25 0 3.25 -3.875 3.25 -3.875 C 3.25 -3.875 7.125 -3.875 7.125 -3.875 C 7.125 -3.875 7.125 0 7.125 0 Z M 7.125 0 "/>
</g>
</g>
</defs>
<rect x="-160" y="-120" width="1920" height="1440" fill="rgb(100%, 100%, 100%)" fill-opacity="1"/>
<path fill-rule="nonzero" fill="rgb(100%, 100%, 100%)" fill-opacity="1" d="M 141.332031 1042.667969 L 1557.332031 1042.667969 L 1557.332031 42.667969 L 141.332031 42.667969 Z M 141.332031 1042.667969 "/>
<path fill="none" stroke-width="1" stroke-linecap="butt" stroke-linejoin="miter" stroke="rgb(0%, 0%, 0%)" stroke-opacity="0.12" stroke-miterlimit="1.154701" d="M 77.135742 391.000488 L 77.135742 16.000488 " transform="matrix(2.666667, 0, 0, 2.666667, 0, 0)"/>
<path fill="none" stroke-width="1" stroke-linecap="butt" stroke-linejoin="miter" stroke="rgb(0%, 0%, 0%)" stroke-opacity="0.12" stroke-miterlimit="1.154701" d="M 318.499512 391.000488 L 318.499512 16.000488 " transform="matrix(2.666667, 0, 0, 2.666667, 0, 0)"/>
<path fill="none" stroke-width="1" stroke-linecap="butt" stroke-linejoin="miter" stroke="rgb(0%, 0%, 0%)" stroke-opacity="0.12" stroke-miterlimit="1.154701" d="M 559.863281 391.000488 L 559.863281 16.000488 " transform="matrix(2.666667, 0, 0, 2.666667, 0, 0)"/>
<path fill="none" stroke-width="1" stroke-linecap="butt" stroke-linejoin="miter" stroke="rgb(0%, 0%, 0%)" stroke-opacity="0.12" stroke-miterlimit="1.154701" d="M 52.999512 304.618652 L 583.999512 304.618652 " transform="matrix(2.666667, 0, 0, 2.666667, 0, 0)"/>
<path fill="none" stroke-width="1" stroke-linecap="butt" stroke-linejoin="miter" stroke="rgb(0%, 0%, 0%)" stroke-opacity="0.12" stroke-miterlimit="1.154701" d="M 52.999512 214.094238 L 583.999512 214.094238 " transform="matrix(2.666667, 0, 0, 2.666667, 0, 0)"/>
<path fill="none" stroke-width="1" stroke-linecap="butt" stroke-linejoin="miter" stroke="rgb(0%, 0%, 0%)" stroke-opacity="0.12" stroke-miterlimit="1.154701" d="M 52.999512 123.569824 L 583.999512 123.569824 " transform="matrix(2.666667, 0, 0, 2.666667, 0, 0)"/>
<path fill="none" stroke-width="1" stroke-linecap="butt" stroke-linejoin="miter" stroke="rgb(0%, 0%, 0%)" stroke-opacity="0.12" stroke-miterlimit="1.154701" d="M 52.999512 33.04541 L 583.999512 33.04541 " transform="matrix(2.666667, 0, 0, 2.666667, 0, 0)"/>
<g fill="rgb(0%, 0%, 0%)" fill-opacity="1">
<use xlink:href="#glyph-0-0-67d08b06" x="840.00002" y="1150.847998"/>
</g>
<g fill="rgb(0%, 0%, 0%)" fill-opacity="1">
<use xlink:href="#glyph-1-0-67d08b06" x="179.750299" y="1099.354665"/>
<use xlink:href="#glyph-1-1-67d08b06" x="200.507633" y="1099.354665"/>
<use xlink:href="#glyph-1-0-67d08b06" x="210.886299" y="1099.354665"/>
</g>
<g fill="rgb(0%, 0%, 0%)" fill-opacity="1">
<use xlink:href="#glyph-1-0-67d08b06" x="823.386688" y="1099.354665"/>
<use xlink:href="#glyph-1-1-67d08b06" x="844.144021" y="1099.354665"/>
<use xlink:href="#glyph-1-2-67d08b06" x="854.522688" y="1099.354665"/>
</g>
<g fill="rgb(0%, 0%, 0%)" fill-opacity="1">
<use xlink:href="#glyph-1-3-67d08b06" x="1467.023097" y="1099.354665"/>
<use xlink:href="#glyph-1-1-67d08b06" x="1487.78043" y="1099.354665"/>
<use xlink:href="#glyph-1-0-67d08b06" x="1498.159096" y="1099.354665"/>
</g>
<g fill="rgb(0%, 0%, 0%)" fill-opacity="1">
<use xlink:href="#glyph-1-4-67d08b06" x="40.970669" y="825.922973"/>
<use xlink:href="#glyph-1-0-67d08b06" x="62.773337" y="825.922973"/>
</g>
<g fill="rgb(0%, 0%, 0%)" fill-opacity="1">
<use xlink:href="#glyph-2-0-67d08b06" x="83.530667" y="825.922973"/>
</g>
<g fill="rgb(0%, 0%, 0%)" fill-opacity="1">
<use xlink:href="#glyph-1-2-67d08b06" x="93.909335" y="825.922973"/>
</g>
<g fill="rgb(0%, 0%, 0%)" fill-opacity="1">
<use xlink:href="#glyph-1-0-67d08b06" x="62.773337" y="584.525018"/>
<use xlink:href="#glyph-1-1-67d08b06" x="83.530672" y="584.525018"/>
<use xlink:href="#glyph-1-0-67d08b06" x="93.909337" y="584.525018"/>
</g>
<g fill="rgb(0%, 0%, 0%)" fill-opacity="1">
<use xlink:href="#glyph-1-0-67d08b06" x="62.773337" y="343.127104"/>
<use xlink:href="#glyph-1-1-67d08b06" x="83.530672" y="343.127104"/>
<use xlink:href="#glyph-1-2-67d08b06" x="93.909337" y="343.127104"/>
</g>
<g fill="rgb(0%, 0%, 0%)" fill-opacity="1">
<use xlink:href="#glyph-1-3-67d08b06" x="62.773337" y="101.729149"/>
<use xlink:href="#glyph-1-1-67d08b06" x="83.530672" y="101.729149"/>
<use xlink:href="#glyph-1-0-67d08b06" x="93.909337" y="101.729149"/>
</g>
<path fill="none" stroke-width="1.5" stroke-linecap="butt" stroke-linejoin="miter" stroke="rgb(0%, 44.705883%, 69.803923%)" stroke-opacity="1" stroke-miterlimit="2" d="M 77.135742 33.04541 L 78.33252 33.84375 L 79.527832 35.334961 L 80.723145 37.510254 L 81.918457 40.35791 L 82.754883 42.744141 L 83.591309 45.445312 L 84.427734 48.457031 L 85.26416 51.771973 L 86.100586 55.384277 L 86.937012 59.283691 L 87.773438 63.464355 L 88.609863 67.916016 L 89.446289 72.628418 L 90.282715 77.592773 L 91.119141 82.798828 L 91.955566 88.236328 L 92.791992 93.893555 L 93.628418 99.758789 L 94.464844 105.820312 L 95.30127 112.066406 L 96.974121 125.061035 L 98.646973 138.640137 L 100.319824 152.695312 L 101.992676 167.118164 L 105.338379 196.620117 L 108.684082 226.240723 L 110.967773 246.074707 L 113.25293 265.271484 L 114.394043 274.546875 L 115.536621 283.565918 L 116.679199 292.296387 L 117.820312 300.708984 L 118.962891 308.777344 L 120.105469 316.472168 L 121.248047 323.77002 L 122.38916 330.644531 L 123.531738 337.075195 L 124.674316 343.041504 L 125.816895 348.524414 L 126.958008 353.506348 L 127.885254 357.166992 L 128.811035 360.481934 L 129.736816 363.443848 L 130.662598 366.04834 L 131.588379 368.288086 L 132.515625 370.161621 L 133.441406 371.666016 L 134.367188 372.79834 L 135.292969 373.557129 L 136.220215 373.942383 L 137.145996 373.954102 L 138.071777 373.595215 L 138.997559 372.867188 L 139.92334 371.772949 L 140.850586 370.31543 L 141.776367 368.501953 L 142.706543 366.325195 L 143.636719 363.80127 L 144.566895 360.93457 L 145.49707 357.735352 L 146.427246 354.210938 L 147.357422 350.373047 L 148.287598 346.229004 L 149.217773 341.791992 L 150.147949 337.072266 L 151.078125 332.083008 L 152.008301 326.835938 L 152.938477 321.344238 L 153.868652 315.622559 L 154.798828 309.685547 L 155.729004 303.546387 L 156.65918 297.221191 L 158.922363 281.15625 L 161.185547 264.313477 L 163.44873 246.93457 L 165.710449 229.26416 L 167.973633 211.54834 L 170.236816 194.033203 L 172.5 176.95752 L 174.761719 160.555664 L 175.688965 154.07959 L 176.616211 147.769043 L 177.543457 141.635742 L 178.470703 135.695801 L 180.32666 124.444336 L 182.181152 114.111328 L 183.108398 109.318359 L 184.035645 104.787598 L 184.962891 100.529297 L 185.890137 96.552246 L 186.817383 92.86377 L 187.744629 89.471191 L 188.671875 86.381836 L 189.599121 83.603027 L 190.527832 81.13623 L 191.455078 78.990234 L 192.383789 77.167969 L 193.311035 75.670898 L 194.239746 74.501953 L 195.166992 73.665527 L 196.095703 73.157227 L 197.022949 72.981445 L 197.95166 73.135254 L 198.878906 73.617188 L 199.807617 74.425781 L 200.734863 75.556641 L 201.663574 77.005371 L 202.59082 78.769043 L 203.519531 80.843262 L 204.446777 83.217773 L 205.579102 86.516602 L 206.711426 90.243164 L 207.84375 94.381348 L 208.976074 98.915039 L 210.108398 103.828125 L 211.239258 109.100098 L 212.371582 114.713379 L 213.503906 120.643066 L 214.63623 126.870117 L 215.768555 133.371094 L 216.899414 140.122559 L 218.031738 147.098145 L 220.296387 161.62207 L 222.561035 176.737793 L 226.272949 202.233398 L 229.984863 227.777344 L 231.84082 240.270996 L 233.696777 252.42627 L 235.552734 264.130371 L 237.408691 275.279297 L 238.539551 281.756836 L 239.67041 287.970703 L 240.80127 293.898926 L 241.932129 299.523926 L 243.062988 304.825195 L 244.193848 309.789551 L 245.324707 314.397949 L 246.455566 318.637207 L 247.586426 322.495605 L 248.717285 325.959961 L 249.848145 329.021484 L 250.979004 331.669922 L 252.109863 333.899414 L 253.240723 335.702637 L 254.371582 337.07666 L 255.502441 338.018555 L 256.429688 338.466797 L 257.356934 338.625 L 258.28418 338.491699 L 259.209961 338.069824 L 260.137207 337.36084 L 261.064453 336.367676 L 261.991699 335.093262 L 262.91748 333.543457 L 263.844727 331.719727 L 264.771973 329.630859 L 265.699219 327.279785 L 266.626465 324.675293 L 268.479492 318.730957 L 270.333984 311.859375 L 272.191406 304.111816 L 274.050293 295.582031 L 275.90918 286.35791 L 277.768066 276.528809 L 279.626953 266.192871 L 281.48584 255.449707 L 283.344727 244.40332 L 285.203613 233.157715 L 289.72998 205.602539 L 294.256348 179.024414 L 295.388672 172.705078 L 296.519531 166.558594 L 297.651855 160.604004 L 298.782715 154.864746 L 299.915039 149.356934 L 301.045898 144.099609 L 302.178223 139.108887 L 303.309082 134.402344 L 305.165039 127.337402 L 307.019531 121.135254 L 307.948242 118.372559 L 308.875488 115.844238 L 309.802734 113.553223 L 310.72998 111.506836 L 311.658691 109.706543 L 312.585938 108.156738 L 313.513184 106.860352 L 314.44043 105.818848 L 315.369141 105.033691 L 316.296387 104.504883 L 317.223633 104.235352 L 318.150879 104.220703 L 319.078125 104.463867 L 320.005371 104.960449 L 320.932617 105.710449 L 321.859863 106.708008 L 322.787109 107.953125 L 323.714355 109.441406 L 324.641602 111.165527 L 325.568848 113.124023 L 327.42334 117.717773 L 329.277832 123.172852 L 331.130859 129.430664 L 332.985352 136.426758 L 335.25 145.869141 L 337.514648 156.168457 L 339.779297 167.173828 L 342.043945 178.725586 L 346.573242 202.804688 L 351.102539 227.058105 L 352.959961 236.736328 L 354.815918 246.130371 L 356.671875 255.152344 L 358.529297 263.724609 L 360.385254 271.768066 L 362.242676 279.212402 L 364.098633 285.994629 L 365.956055 292.053223 L 367.086914 295.369629 L 368.217773 298.388672 L 369.348633 301.101562 L 370.479492 303.499512 L 371.611816 305.578125 L 372.742676 307.328613 L 373.873535 308.748047 L 375.004395 309.833496 L 376.135254 310.582031 L 377.267578 310.992188 L 378.398438 311.06543 L 379.529297 310.801758 L 380.660156 310.204102 L 381.791016 309.276855 L 382.92334 308.024414 L 384.054199 306.452637 L 385.908691 303.202148 L 387.763184 299.147461 L 389.616211 294.335449 L 391.470703 288.812988 L 393.325195 282.638672 L 395.179688 275.875488 L 397.03418 268.589355 L 398.888672 260.853516 L 402.602051 244.306641 L 406.316895 226.894043 L 410.030273 209.273438 L 413.745117 192.101074 L 416.008301 182.122559 L 418.272949 172.681641 L 420.536133 163.899902 L 422.800781 155.895996 L 423.931641 152.216309 L 425.063965 148.770996 L 426.196289 145.565918 L 427.327148 142.615723 L 428.459473 139.92627 L 429.591797 137.506348 L 430.724121 135.364746 L 431.85498 133.505859 L 433.710938 131.083008 L 435.566895 129.451172 L 437.422852 128.620605 L 439.278809 128.591309 L 441.134766 129.357422 L 442.989258 130.907227 L 444.845215 133.21875 L 446.701172 136.265625 L 447.832031 138.467285 L 448.962891 140.920898 L 450.09375 143.617676 L 451.224609 146.544434 L 453.484863 153.046875 L 455.746582 160.333008 L 458.008301 168.291504 L 460.27002 176.80957 L 462.531738 185.76123 L 464.793457 195.021973 L 468.499512 210.522949 L 472.207031 225.919922 L 474.060059 233.400879 L 475.913086 240.644531 L 477.767578 247.587891 L 479.620605 254.166504 L 481.480957 260.342285 L 483.339844 266.039062 L 485.200195 271.207031 L 487.060547 275.800781 L 488.919434 279.782227 L 490.779785 283.119141 L 492.638672 285.786621 L 494.499023 287.76123 L 495.629883 288.619629 L 496.762207 289.21582 L 497.893066 289.54834 L 499.025391 289.618652 L 500.15625 289.426758 L 501.288574 288.972656 L 502.419434 288.263672 L 503.550293 287.29834 L 504.682617 286.085449 L 505.813477 284.62793 L 506.945801 282.933105 L 508.07666 281.008301 L 509.208984 278.859375 L 510.339844 276.496582 L 511.470703 273.927246 L 512.603027 271.164551 L 514.445801 266.270508 L 516.288574 260.935547 L 518.132812 255.210938 L 519.975586 249.152344 L 523.662598 236.267578 L 527.348145 222.767578 L 530.723145 210.298828 L 534.098145 198.120117 L 537.473145 186.599121 L 540.848145 176.080078 L 542.535645 171.294434 L 544.223145 166.87207 L 545.910645 162.84375 L 547.598145 159.237305 L 549.285645 156.079102 L 550.973145 153.389648 L 552.660645 151.186523 L 554.348145 149.48291 L 555.726562 148.467773 L 557.106445 147.796875 L 558.484863 147.47168 L 559.863281 147.489258 " transform="matrix(2.666667, 0, 0, 2.666667, 0, 0)"/>
<path fill="none" stroke-width="1" stroke-linecap="butt" stroke-linejoin="miter" stroke="rgb(0%, 0%, 0%)" stroke-opacity="1" stroke-miterlimit="1.154701" d="M 77.135742 391.5 L 77.135742 396.499512 " transform="matrix(2.666667, 0, 0, 2.666667, 0, 0)"/>
<path fill="none" stroke-width="1" stroke-linecap="butt" stroke-linejoin="miter" stroke="rgb(0%, 0%, 0%)" stroke-opacity="1" stroke-miterlimit="1.154701" d="M 318.499512 391.5 L 318.499512 396.499512 " transform="matrix(2.666667, 0, 0, 2.666667, 0, 0)"/>
<path fill="none" stroke-width="1" stroke-linecap="butt" stroke-linejoin="miter" stroke="rgb(0%, 0%, 0%)" stroke-opacity="1" stroke-miterlimit="1.154701" d="M 559.863281 391.5 L 559.863281 396.499512 " transform="matrix(2.666667, 0, 0, 2.666667, 0, 0)"/>
<path fill="none" stroke-width="1" stroke-linecap="butt" stroke-linejoin="miter" stroke="rgb(0%, 0%, 0%)" stroke-opacity="1" stroke-miterlimit="1.154701" d="M 52.5 304.618652 L 47.500488 304.618652 " transform="matrix(2.666667, 0, 0, 2.666667, 0, 0)"/>
<path fill="none" stroke-width="1" stroke-linecap="butt" stroke-linejoin="miter" stroke="rgb(0%, 0%, 0%)" stroke-opacity="1" stroke-miterlimit="1.154701" d="M 52.5 214.094238 L 47.500488 214.094238 " transform="matrix(2.666667, 0, 0, 2.666667, 0, 0)"/>
<path fill="none" stroke-width="1" stroke-linecap="butt" stroke-linejoin="miter" stroke="rgb(0%, 0%, 0%)" stroke-opacity="1" stroke-miterlimit="1.154701" d="M 52.5 123.569824 L 47.500488 123.569824 " transform="matrix(2.666667, 0, 0, 2.666667, 0, 0)"/>
<path fill="none" stroke-width="1" stroke-linecap="butt" stroke-linejoin="miter" stroke="rgb(0%, 0%, 0%)" stroke-opacity="1" stroke-miterlimit="1.154701" d="M 52.5 33.04541 L 47.500488 33.04541 " transform="matrix(2.666667, 0, 0, 2.666667, 0, 0)"/>
<path fill="none" stroke-width="1" stroke-linecap="butt" stroke-linejoin="miter" stroke="rgb(0%, 0%, 0%)" stroke-opacity="1" stroke-miterlimit="1.154701" d="M 52.5 391.000488 L 584.500488 391.000488 " transform="matrix(2.666667, 0, 0, 2.666667, 0, 0)"/>
<path fill="none" stroke-width="1" stroke-linecap="butt" stroke-linejoin="miter" stroke="rgb(0%, 0%, 0%)" stroke-opacity="1" stroke-miterlimit="1.154701" d="M 52.999512 391.5 L 52.999512 15.499512 " transform="matrix(2.666667, 0, 0, 2.666667, 0, 0)"/>
<path fill="none" stroke-width="1" stroke-linecap="butt" stroke-linejoin="miter" stroke="rgb(0%, 0%, 0%)" stroke-opacity="1" stroke-miterlimit="1.154701" d="M 52.5 16.000488 L 584.500488 16.000488 " transform="matrix(2.666667, 0, 0, 2.666667, 0, 0)"/>
<path fill="none" stroke-width="1" stroke-linecap="butt" stroke-linejoin="miter" stroke="rgb(0%, 0%, 0%)" stroke-opacity="1" stroke-miterlimit="1.154701" d="M 583.999512 391.5 L 583.999512 15.499512 " transform="matrix(2.666667, 0, 0, 2.666667, 0, 0)"/>
</svg>
